{
  "accessors": [
    {
      "bufferView": 2,
      "componentType": 5126,
      "count": 65532,
      "max": [
        5.050280570983887,
        2.7042887210845947,
        5.519416809082031
      ],
      "min": [
        -4.698849201202393,
        -4.386698246002197,
        -4.342215538024902
      ],
      "type": "VEC3"
    },
    {
      "bufferView": 2,
      "byteOffset": 786384,
      "componentType": 5126,
      "count": 65532,
      "max": [
        1.0,
        0.9999843239784241,
        0.9826489686965942
      ],
      "min": [
        -0.9999985098838806,
        -0.9999767541885376,
        -0.9999995827674866
      ],
      "type": "VEC3"
    },
    {
      "bufferView": 1,
      "componentType": 5126,
      "count": 65532,
      "max": [
        0.998556911945343,
        0.9997316002845764
      ],
      "min": [
        0.00035199456033296883,
        0.0023679137229919434
      ],
      "type": "VEC2"
    },
    {
      "bufferView": 0,
      "componentType": 5125,
      "count": 308058,
      "type": "SCALAR"
    },
    {
      "bufferView": 2,
      "byteOffset": 1572768,
      "componentType": 5126,
      "count": 65532,
      "max": [
        5.060551643371582,
        2.6698250770568848,
        5.599842548370361
      ],
      "min": [
        -4.721597671508789,
        -4.34072732925415,
        -4.340372562408447
      ],
      "type": "VEC3"
    },
    {
      "bufferView": 2,
      "byteOffset": 2359152,
      "componentType": 5126,
      "count": 65532,
      "max": [
        1.0,
        0.9999984502792358,
        0.9999668002128601
      ],
      "min": [
        -1.0,
        -0.9999926686286926,
        -0.9999998807907104
      ],
      "type": "VEC3"
    },
    {
      "bufferView": 1,
      "byteOffset": 524256,
      "componentType": 5126,
      "count": 65532,
      "max": [
        0.9995664358139038,
        0.9996855854988098
      ],
      "min": [
        0.0002604286710266024,
        0.0007531642913818359
      ],
      "type": "VEC2"
    },
    {
      "bufferView": 0,
      "byteOffset": 1232232,
      "componentType": 5125,
      "count": 299229,
      "type": "SCALAR"
    },
    {
      "bufferView": 2,
      "byteOffset": 3145536,
      "componentType": 5126,
      "count": 65532,
      "max": [
        5.0619730949401855,
        2.6859476566314697,
        5.610924243927002
      ],
      "min": [
        -4.710629940032959,
        -4.382819652557373,
        -4.360815048217773
      ],
      "type": "VEC3"
    },
    {
      "bufferView": 2,
      "byteOffset": 3931920,
      "componentType": 5126,
      "count": 65532,
      "max": [
        0.9999998807907104,
        0.9999983906745911,
        0.9999995827674866
      ],
      "min": [
        -0.9999998807907104,
        -0.9998219609260559,
        -0.9999995231628418
      ],
      "type": "VEC3"
    },
    {
      "bufferView": 1,
      "byteOffset": 1048512,
      "componentType": 5126,
      "count": 65532,
      "max": [
        0.9995914101600647,
        0.9997183680534363
      ],
      "min": [
        0.0003200818900950253,
        0.00048595666885375977
      ],
      "type": "VEC2"
    },
    {
      "bufferView": 0,
      "byteOffset": 2429148,
      "componentType": 5125,
      "count": 279828,
      "type": "SCALAR"
    },
    {
      "bufferView": 2,
      "byteOffset": 4718304,
      "componentType": 5126,
      "count": 65532,
      "max": [
        5.061385631561279,
        2.699779510498047,
        5.638904094696045
      ],
      "min": [
        -4.705777168273926,
        -4.368199348449707,
        -4.340372562408447
      ],
      "type": "VEC3"
    },
    {
      "bufferView": 2,
      "byteOffset": 5504688,
      "componentType": 5126,
      "count": 65532,
      "max": [
        0.999998927116394,
        0.9999998211860657,
        0.9999999403953552
      ],
      "min": [
        -0.999999463558197,
        -0.9997456669807434,
        -0.9999991655349731
      ],
      "type": "VEC3"
    },
    {
      "bufferView": 1,
      "byteOffset": 1572768,
      "componentType": 5126,
      "count": 65532,
      "max": [
        0.9991021156311035,
        0.9997310042381287
      ],
      "min": [
        0.0002673800918273628,
        0.0014165639877319336
      ],
      "type": "VEC2"
    },
    {
      "bufferView": 0,
      "byteOffset": 3548460,
      "componentType": 5125,
      "count": 250734,
      "type": "SCALAR"
    },
    {
      "bufferView": 2,
      "byteOffset": 6291072,
      "componentType": 5126,
      "count": 34951,
      "max": [
        5.0505452156066895,
        2.694728136062622,
        5.639184474945068
      ],
      "min": [
        -4.7099456787109375,
        -4.386698246002197,
        -4.354897499084473
      ],
      "type": "VEC3"
    },
    {
      "bufferView": 2,
      "byteOffset": 6710484,
      "componentType": 5126,
      "count": 34951,
      "max": [
        0.9999964237213135,
        0.9999995827674866,
        0.9999995827674866
      ],
      "min": [
        -0.9999974966049194,
        -0.9998557567596436,
        -0.9999991059303284
      ],
      "type": "VEC3"
    },
    {
      "bufferView": 1,
      "byteOffset": 2097024,
      "componentType": 5126,
      "count": 34951,
      "max": [
        0.9996309280395508,
        0.9996747970581055
      ],
      "min": [
        0.0002494236105121672,
        0.002973198890686035
      ],
      "type": "VEC2"
    },
    {
      "bufferView": 0,
      "byteOffset": 4551396,
      "componentType": 5125,
      "count": 62271,
      "type": "SCALAR"
    }
  ],
  "asset": {
    "extras": {
      "author": "b_nealie (https://sketchfab.com/b_nealie)",
      "license": "CC-BY-4.0 (http://creativecommons.org/licenses/by/4.0/)",
      "source": "https://sketchfab.com/3d-models/old-travel-case-989abc9ba0cb4d21985effc7be5abd9c",
      "title": "Old travel case"
    },
    "generator": "Sketchfab-12.68.0",
    "version": "2.0"
  },
  "bufferViews": [
    {
      "buffer": 0,
      "byteLength": 4800480,
      "name": "floatBufferViews",
      "target": 34963
    },
    {
      "buffer": 0,
      "byteLength": 2376632,
      "byteOffset": 4800480,
      "byteStride": 8,
      "name": "floatBufferViews",
      "target": 34962
    },
    {
      "buffer": 0,
      "byteLength": 7129896,
      "byteOffset": 7177112,
      "byteStride": 12,
      "name": "floatBufferViews",
      "target": 34962
    }
  ],
  "buffers": [
    {
      "byteLength": 14307008,
      "uri": "scene.bin"
    }
  ],
  "extensionsUsed": [
    "KHR_materials_unlit"
  ],
  "images": [
    {
      "uri": "textures/Material0_baseColor.jpeg"
    }
  ],
  "materials": [
    {
      "doubleSided": true,
      "extensions": {
        "KHR_materials_unlit": {}
      },
      "name": "Material0",
      "pbrMetallicRoughness": {
        "baseColorTexture": {
          "index": 0
        },
        "metallicFactor": 0.0
      }
    }
  ],
  "meshes": [
    {
      "name": "Stereo textured mesh_Material0_0",
      "primitives": [
        {
          "attributes": {
            "NORMAL": 1,
            "POSITION": 0,
            "TEXCOORD_0": 2
          },
          "indices": 3,
          "material": 0,
          "mode": 4
        }
      ]
    },
    {
      "name": "Stereo textured mesh_Material0_0",
      "primitives": [
        {
          "attributes": {
            "NORMAL": 5,
            "POSITION": 4,
            "TEXCOORD_0": 6
          },
          "indices": 7,
          "material": 0,
          "mode": 4
        }
      ]
    },
    {
      "name": "Stereo textured mesh_Material0_0",
      "primitives": [
        {
          "attributes": {
            "NORMAL": 9,
            "POSITION": 8,
            "TEXCOORD_0": 10
          },
          "indices": 11,
          "material": 0,
          "mode": 4
        }
      ]
    },
    {
      "name": "Stereo textured mesh_Material0_0",
      "primitives": [
        {
          "attributes": {
            "NORMAL": 13,
            "POSITION": 12,
            "TEXCOORD_0": 14
          },
          "indices": 15,
          "material": 0,
          "mode": 4
        }
      ]
    },
    {
      "name": "Stereo textured mesh_Material0_0",
      "primitives": [
        {
          "attributes": {
            "NORMAL": 17,
            "POSITION": 16,
            "TEXCOORD_0": 18
          },
          "indices": 19,
          "material": 0,
          "mode": 4
        }
      ]
    }
  ],
  "nodes": [
    {
      "children": [
        1
      ],
      "matrix": [
        1.0,
        0.0,
        0.0,
        0.0,
        0.0,
        -1.0,
        -4.440892098500626e-16,
        0.0,
        0.0,
        4.440892098500626e-16,
        -1.0,
        0.0,
        0.0,
        0.20203387737274203,
        -1.4803909063339233,
        1.0
      ],
      "name": "Sketchfab_model"
    },
    {
      "children": [
        2
      ],
      "matrix": [
        1.0,
        0.0,
        0.0,
        0.0,
        0.0,
        -1.0,
        0.0,
        0.0,
        0.0,
        0.0,
        -1.0,
        0.0,
        0.0,
        0.0,
        0.0,
        1.0
      ],
      "name": "sketchfabTemp.obj.fbx"
    },
    {
      "children": [
        3
      ],
      "name": "RootNode"
    },
    {
      "children": [
        4,
        5,
        6,
        7,
        8
      ],
      "name": "Stereo textured mesh"
    },
    {
      "mesh": 0,
      "name": "Stereo textured mesh_Material0_0"
    },
    {
      "mesh": 1,
      "name": "Stereo textured mesh_Material0_0"
    },
    {
      "mesh": 2,
      "name": "Stereo textured mesh_Material0_0"
    },
    {
      "mesh": 3,
      "name": "Stereo textured mesh_Material0_0"
    },
    {
      "mesh": 4,
      "name": "Stereo textured mesh_Material0_0"
    }
  ],
  "samplers": [
    {
      "magFilter": 9729,
      "minFilter": 9987,
      "wrapS": 10497,
      "wrapT": 10497
    }
  ],
  "scene": 0,
  "scenes": [
    {
      "name": "Sketchfab_Scene",
      "nodes": [
        0
      ]
    }
  ],
  "textures": [
    {
      "sampler": 0,
      "source": 0
    }
  ]
}
