{
  "accessors": [
    {
      "bufferView": 3,
      "componentType": 5126,
      "count": 7244,
      "max": [
        11.539421081542969,
        143.7928924560547,
        53.142642974853516
      ],
      "min": [
        -11.533805847167969,
        -0.06606423109769821,
        -50.727108001708984
      ],
      "type": "VEC3"
    },
    {
      "bufferView": 3,
      "byteOffset": 86928,
      "componentType": 5126,
      "count": 7244,
      "max": [
        0.9997068047523499,
        0.9998704195022583,
        0.9999528527259827
      ],
      "min": [
        -0.9996471405029297,
        -0.9999703764915466,
        -0.999996542930603
      ],
      "type": "VEC3"
    },
    {
      "bufferView": 4,
      "componentType": 5126,
      "count": 7244,
      "max": [
        0.9995563626289368,
        0.9999966025352478,
        0.995973527431488,
        1.0
      ],
      "min": [
        -0.9995838403701782,
        -0.9996723532676697,
        -0.9999862909317017,
        -1.0
      ],
      "type": "VEC4"
    },
    {
      "bufferView": 2,
      "componentType": 5126,
      "count": 7244,
      "max": [
        1.0,
        1.0
      ],
      "min": [
        0.0,
        -0.0008035898208618164
      ],
      "type": "VEC2"
    },
    {
      "bufferView": 2,
      "byteOffset": 57952,
      "componentType": 5126,
      "count": 7244,
      "max": [
        1.0,
        1.0
      ],
      "min": [
        0.0,
        -0.0008035898208618164
      ],
      "type": "VEC2"
    },
    {
      "bufferView": 2,
      "byteOffset": 115904,
      "componentType": 5126,
      "count": 7244,
      "max": [
        1.0,
        1.0
      ],
      "min": [
        0.0,
        -0.0008035898208618164
      ],
      "type": "VEC2"
    },
    {
      "bufferView": 2,
      "byteOffset": 173856,
      "componentType": 5126,
      "count": 7244,
      "max": [
        1.0,
        1.0
      ],
      "min": [
        0.0,
        -0.0008035898208618164
      ],
      "type": "VEC2"
    },
    {
      "bufferView": 3,
      "byteOffset": 173856,
      "componentType": 5126,
      "count": 7244,
      "max": [
        0.0,
        0.0,
        0.0
      ],
      "min": [
        0.0,
        0.0,
        0.0
      ],
      "type": "VEC3"
    },
    {
      "bufferView": 3,
      "byteOffset": 260784,
      "componentType": 5126,
      "count": 7244,
      "max": [
        1.1920928955078125e-07,
        1.1920928955078125e-07,
        1.1920928955078125e-07
      ],
      "min": [
        -1.1920928955078125e-07,
        -1.1920928955078125e-07,
        -1.1920928955078125e-07
      ],
      "type": "VEC3"
    },
    {
      "bufferView": 3,
      "byteOffset": 347712,
      "componentType": 5126,
      "count": 7244,
      "max": [
        0.7350606918334961,
        0.81304931640625,
        0.5287513732910156
      ],
      "min": [
        -0.6365108489990234,
        -1.2926025390625,
        -0.3467063903808594
      ],
      "type": "VEC3"
    },
    {
      "bufferView": 3,
      "byteOffset": 434640,
      "componentType": 5126,
      "count": 7244,
      "max": [
        0.7319741249084473,
        0.7491014003753662,
        0.8547974824905396
      ],
      "min": [
        -0.7112237215042114,
        -0.9487035274505615,
        -0.8214941024780273
      ],
      "type": "VEC3"
    },
    {
      "bufferView": 3,
      "byteOffset": 521568,
      "componentType": 5126,
      "count": 7244,
      "max": [
        0.0,
        0.2683258056640625,
        0.2581825256347656
      ],
      "min": [
        0.0,
        -0.2680511474609375,
        -0.2556571960449219
      ],
      "type": "VEC3"
    },
    {
      "bufferView": 3,
      "byteOffset": 608496,
      "componentType": 5126,
      "count": 7244,
      "max": [
        0.00011385977268218994,
        0.23800291121006012,
        0.2381078004837036
      ],
      "min": [
        -0.00011385977268218994,
        -0.23800291121006012,
        -0.2381078004837036
      ],
      "type": "VEC3"
    },
    {
      "bufferView": 1,
      "componentType": 5125,
      "count": 40764,
      "type": "SCALAR"
    },
    {
      "bufferView": 5,
      "componentType": 5126,
      "count": 35,
      "max": [
        1.0,
        4.2735482566058636e-06,
        3.815503532678122e-06,
        0.0,
        8.173087735485751e-07,
        1.0,
        0.9996508359909058,
        0.0,
        3.785932449318352e-06,
        0.9996505379676819,
        1.0,
        0.0,
        7.11442756652832,
        96.80912017822266,
        98.451416015625,
        1.0
      ],
      "min": [
        -1.0,
        -3.6868686947855167e-06,
        -3.705217977767461e-06,
        0.0,
        -2.2747258299204987e-06,
        -0.9990329742431641,
        -0.9996504187583923,
        0.0,
        -4.259438810549909e-06,
        -0.9888105988502502,
        -0.9992681741714478,
        0.0,
        -9.030122600961477e-05,
        -131.09681701660156,
        -140.8423309326172,
        1.0
      ],
      "type": "MAT4"
    },
    {
      "bufferView": 0,
      "componentType": 5123,
      "count": 7244,
      "type": "VEC4"
    },
    {
      "bufferView": 4,
      "byteOffset": 115904,
      "componentType": 5126,
      "count": 7244,
      "max": [
        1.0,
        0.499298095703125,
        0.2914944291114807,
        0.23152002692222595
      ],
      "min": [
        0.27469104528427124,
        0.0,
        0.0,
        0.0
      ],
      "type": "VEC4"
    },
    {
      "bufferView": 6,
      "componentType": 5126,
      "count": 481,
      "max": [
        16.066667556762695
      ],
      "min": [
        0.03333333507180214
      ],
      "type": "SCALAR"
    },
    {
      "bufferView": 7,
      "componentType": 5126,
      "count": 481,
      "max": [
        1.0703674888645764e-06,
        -23.77497100830078,
        -98.19123077392578
      ],
      "min": [
        1.0392363947175909e-06,
        -23.77497673034668,
        -98.76029968261719
      ],
      "type": "VEC3"
    },
    {
      "bufferView": 6,
      "byteOffset": 1924,
      "componentType": 5126,
      "count": 1,
      "max": [
        0.03333333507180214
      ],
      "min": [
        0.03333333507180214
      ],
      "type": "SCALAR"
    },
    {
      "bufferView": 7,
      "byteOffset": 5772,
      "componentType": 5126,
      "count": 1,
      "max": [
        1.0000001192092896,
        1.000001072883606,
        1.000001072883606
      ],
      "min": [
        1.0000001192092896,
        1.000001072883606,
        1.000001072883606
      ],
      "type": "VEC3"
    },
    {
      "bufferView": 6,
      "byteOffset": 1928,
      "componentType": 5126,
      "count": 2,
      "max": [
        16.066667556762695
      ],
      "min": [
        0.03333333507180214
      ],
      "type": "SCALAR"
    },
    {
      "bufferView": 7,
      "byteOffset": 5784,
      "componentType": 5126,
      "count": 2,
      "max": [
        7.114004611968994,
        1.1853115558624268,
        3.561044692993164
      ],
      "min": [
        7.114004135131836,
        1.1853035688400269,
        3.5610411167144775
      ],
      "type": "VEC3"
    },
    {
      "bufferView": 6,
      "byteOffset": 1936,
      "componentType": 5126,
      "count": 481,
      "max": [
        16.066667556762695
      ],
      "min": [
        0.03333333507180214
      ],
      "type": "SCALAR"
    },
    {
      "bufferView": 8,
      "componentType": 5126,
      "count": 481,
      "max": [
        0.03684620186686516,
        -0.4245575964450836,
        -0.8831434845924377,
        0.1525871753692627
      ],
      "min": [
        0.03447461500763893,
        -0.44225144386291504,
        -0.8917844891548157,
        0.152031809091568
      ],
      "type": "VEC4"
    },
    {
      "bufferView": 6,
      "byteOffset": 3860,
      "componentType": 5126,
      "count": 2,
      "max": [
        16.066667556762695
      ],
      "min": [
        0.03333333507180214
      ],
      "type": "SCALAR"
    },
    {
      "bufferView": 7,
      "byteOffset": 5808,
      "componentType": 5126,
      "count": 2,
      "max": [
        1.0,
        1.0000003576278687,
        1.0000001192092896
      ],
      "min": [
        1.0,
        1.0000001192092896,
        1.0
      ],
      "type": "VEC3"
    },
    {
      "bufferView": 6,
      "byteOffset": 3868,
      "componentType": 5126,
      "count": 2,
      "max": [
        16.066667556762695
      ],
      "min": [
        0.03333333507180214
      ],
      "type": "SCALAR"
    },
    {
      "bufferView": 7,
      "byteOffset": 5832,
      "componentType": 5126,
      "count": 2,
      "max": [
        2.3932248041091952e-06,
        14.970651626586914,
        -3.252187525504269e-05
      ],
      "min": [
        1.6779674751887796e-06,
        14.970649719238281,
        -3.423321322770789e-05
      ],
      "type": "VEC3"
    },
    {
      "bufferView": 6,
      "byteOffset": 3876,
      "componentType": 5126,
      "count": 481,
      "max": [
        16.066667556762695
      ],
      "min": [
        0.03333333507180214
      ],
      "type": "SCALAR"
    },
    {
      "bufferView": 8,
      "byteOffset": 7696,
      "componentType": 5126,
      "count": 481,
      "max": [
        0.5912960171699524,
        2.1779062819859973e-07,
        -6.589074530438666e-08,
        0.8200563192367554
      ],
      "min": [
        0.5722828507423401,
        8.539824136732932e-08,
        -2.042270068614016e-07,
        0.806454598903656
      ],
      "type": "VEC4"
    },
    {
      "bufferView": 6,
      "byteOffset": 5800,
      "componentType": 5126,
      "count": 2,
      "max": [
        16.066667556762695
      ],
      "min": [
        0.03333333507180214
      ],
      "type": "SCALAR"
    },
    {
      "bufferView": 7,
      "byteOffset": 5856,
      "componentType": 5126,
      "count": 2,
      "max": [
        0.9999998807907104,
        0.9999998807907104,
        0.9999998211860657
      ],
      "min": [
        0.9999998807907104,
        0.9999998211860657,
        0.9999997019767761
      ],
      "type": "VEC3"
    },
    {
      "bufferView": 6,
      "byteOffset": 5808,
      "componentType": 5126,
      "count": 2,
      "max": [
        16.066667556762695
      ],
      "min": [
        0.03333333507180214
      ],
      "type": "SCALAR"
    },
    {
      "bufferView": 7,
      "byteOffset": 5880,
      "componentType": 5126,
      "count": 2,
      "max": [
        5.912717824685387e-06,
        43.76585006713867,
        -3.7983404581609648e-06
      ],
      "min": [
        5.912706001254264e-06,
        43.76581954956055,
        -4.058338163304143e-06
      ],
      "type": "VEC3"
    },
    {
      "bufferView": 6,
      "byteOffset": 5816,
      "componentType": 5126,
      "count": 481,
      "max": [
        16.066667556762695
      ],
      "min": [
        0.03333333507180214
      ],
      "type": "SCALAR"
    },
    {
      "bufferView": 8,
      "byteOffset": 15392,
      "componentType": 5126,
      "count": 481,
      "max": [
        -0.058146193623542786,
        -0.14986950159072876,
        0.044838983565568924,
        0.985975444316864
      ],
      "min": [
        -0.06174338608980179,
        -0.15022394061088562,
        0.043637122958898544,
        0.9857566952705383
      ],
      "type": "VEC4"
    },
    {
      "bufferView": 6,
      "byteOffset": 7740,
      "componentType": 5126,
      "count": 2,
      "max": [
        16.066667556762695
      ],
      "min": [
        0.03333333507180214
      ],
      "type": "SCALAR"
    },
    {
      "bufferView": 7,
      "byteOffset": 5904,
      "componentType": 5126,
      "count": 2,
      "max": [
        0.9999997019767761,
        0.9999999403953552,
        1.000000238418579
      ],
      "min": [
        0.9999995827674866,
        0.9999997615814209,
        0.9999999403953552
      ],
      "type": "VEC3"
    },
    {
      "bufferView": 6,
      "byteOffset": 7748,
      "componentType": 5126,
      "count": 2,
      "max": [
        16.066667556762695
      ],
      "min": [
        0.03333333507180214
      ],
      "type": "SCALAR"
    },
    {
      "bufferView": 7,
      "byteOffset": 5928,
      "componentType": 5126,
      "count": 2,
      "max": [
        -8.1340231190552e-06,
        44.76985168457031,
        -3.074649066547863e-05
      ],
      "min": [
        -9.520539606455714e-06,
        44.76984786987305,
        -3.248044595238753e-05
      ],
      "type": "VEC3"
    },
    {
      "bufferView": 6,
      "byteOffset": 7756,
      "componentType": 5126,
      "count": 481,
      "max": [
        16.066667556762695
      ],
      "min": [
        0.03333333507180214
      ],
      "type": "SCALAR"
    },
    {
      "bufferView": 8,
      "byteOffset": 23088,
      "componentType": 5126,
      "count": 481,
      "max": [
        -0.6706317067146301,
        0.0002779643109533936,
        0.0001548229338368401,
        0.7417905330657959
      ],
      "min": [
        -0.6707891821861267,
        -2.146333372365916e-06,
        -2.290277734573465e-05,
        0.7416480779647827
      ],
      "type": "VEC4"
    },
    {
      "bufferView": 6,
      "byteOffset": 9680,
      "componentType": 5126,
      "count": 2,
      "max": [
        16.066667556762695
      ],
      "min": [
        0.03333333507180214
      ],
      "type": "SCALAR"
    },
    {
      "bufferView": 7,
      "byteOffset": 5952,
      "componentType": 5126,
      "count": 2,
      "max": [
        1.0,
        1.0,
        1.0000001192092896
      ],
      "min": [
        0.9999999403953552,
        0.9999998211860657,
        0.9999999403953552
      ],
      "type": "VEC3"
    },
    {
      "bufferView": 6,
      "byteOffset": 9688,
      "componentType": 5126,
      "count": 2,
      "max": [
        16.066667556762695
      ],
      "min": [
        0.03333333507180214
      ],
      "type": "SCALAR"
    },
    {
      "bufferView": 7,
      "byteOffset": 5976,
      "componentType": 5126,
      "count": 2,
      "max": [
        -9.760527973412536e-06,
        9.261031150817871,
        -4.261847607267555e-06
      ],
      "min": [
        -9.783345376490615e-06,
        9.261030197143555,
        -4.544038802123396e-06
      ],
      "type": "VEC3"
    },
    {
      "bufferView": 6,
      "byteOffset": 9696,
      "componentType": 5126,
      "count": 2,
      "max": [
        16.066667556762695
      ],
      "min": [
        0.03333333507180214
      ],
      "type": "SCALAR"
    },
    {
      "bufferView": 8,
      "byteOffset": 30784,
      "componentType": 5126,
      "count": 2,
      "max": [
        -8.748736490815645e-08,
        -2.1239010550289095e-10,
        8.99102927526263e-12,
        1.0
      ],
      "min": [
        -8.894005532056326e-08,
        -2.1511860348599754e-10,
        1.7150762147283283e-12,
        1.0
      ],
      "type": "VEC4"
    },
    {
      "bufferView": 6,
      "byteOffset": 9704,
      "componentType": 5126,
      "count": 2,
      "max": [
        16.066667556762695
      ],
      "min": [
        0.03333333507180214
      ],
      "type": "SCALAR"
    },
    {
      "bufferView": 7,
      "byteOffset": 6000,
      "componentType": 5126,
      "count": 2,
      "max": [
        1.0,
        1.000000238418579,
        1.000000238418579
      ],
      "min": [
        0.9999999403953552,
        1.0,
        1.0000001192092896
      ],
      "type": "VEC3"
    },
    {
      "bufferView": 6,
      "byteOffset": 9712,
      "componentType": 5126,
      "count": 2,
      "max": [
        16.066667556762695
      ],
      "min": [
        0.03333333507180214
      ],
      "type": "SCALAR"
    },
    {
      "bufferView": 7,
      "byteOffset": 6024,
      "componentType": 5126,
      "count": 2,
      "max": [
        -7.114382266998291,
        1.1853255033493042,
        3.5610592365264893
      ],
      "min": [
        -7.114382743835449,
        1.1853197813034058,
        3.5610525608062744
      ],
      "type": "VEC3"
    },
    {
      "bufferView": 6,
      "byteOffset": 9720,
      "componentType": 5126,
      "count": 481,
      "max": [
        16.066667556762695
      ],
      "min": [
        0.03333333507180214
      ],
      "type": "SCALAR"
    },
    {
      "bufferView": 8,
      "byteOffset": 30816,
      "componentType": 5126,
      "count": 481,
      "max": [
        0.8917871713638306,
        -0.152012437582016,
        -0.03446989879012108,
        0.4422529339790344
      ],
      "min": [
        0.8831464648246765,
        -0.1525665819644928,
        -0.036836180835962296,
        0.42455965280532837
      ],
      "type": "VEC4"
    },
    {
      "bufferView": 6,
      "byteOffset": 11644,
      "componentType": 5126,
      "count": 2,
      "max": [
        16.066667556762695
      ],
      "min": [
        0.03333333507180214
      ],
      "type": "SCALAR"
    },
    {
      "bufferView": 7,
      "byteOffset": 6048,
      "componentType": 5126,
      "count": 2,
      "max": [
        1.0000001192092896,
        0.9999996423721313,
        0.9999995827674866
      ],
      "min": [
        1.0000001192092896,
        0.9999995827674866,
        0.9999994039535522
      ],
      "type": "VEC3"
    },
    {
      "bufferView": 6,
      "byteOffset": 11652,
      "componentType": 5126,
      "count": 2,
      "max": [
        16.066667556762695
      ],
      "min": [
        0.03333333507180214
      ],
      "type": "SCALAR"
    },
    {
      "bufferView": 7,
      "byteOffset": 6072,
      "componentType": 5126,
      "count": 2,
      "max": [
        3.2612633731332608e-06,
        14.97066879272461,
        4.418778189574368e-05
      ],
      "min": [
        2.307609292984125e-06,
        14.970667839050293,
        1.9230197722208686e-05
      ],
      "type": "VEC3"
    },
    {
      "bufferView": 6,
      "byteOffset": 11660,
      "componentType": 5126,
      "count": 481,
      "max": [
        16.066667556762695
      ],
      "min": [
        0.03333333507180214
      ],
      "type": "SCALAR"
    },
    {
      "bufferView": 8,
      "byteOffset": 38512,
      "componentType": 5126,
      "count": 481,
      "max": [
        -0.5722829103469849,
        2.2261851029270474e-08,
        -1.4025718542143295e-07,
        0.8200562596321106
      ],
      "min": [
        -0.5912957787513733,
        -8.705986687118639e-08,
        -2.5455872787460976e-07,
        0.8064547777175903
      ],
      "type": "VEC4"
    },
    {
      "bufferView": 6,
      "byteOffset": 13584,
      "componentType": 5126,
      "count": 2,
      "max": [
        16.066667556762695
      ],
      "min": [
        0.03333333507180214
      ],
      "type": "SCALAR"
    },
    {
      "bufferView": 7,
      "byteOffset": 6096,
      "componentType": 5126,
      "count": 2,
      "max": [
        1.0000001192092896,
        0.9999998211860657,
        1.0000001192092896
      ],
      "min": [
        1.0000001192092896,
        0.9999997615814209,
        0.9999999403953552
      ],
      "type": "VEC3"
    },
    {
      "bufferView": 6,
      "byteOffset": 13592,
      "componentType": 5126,
      "count": 2,
      "max": [
        16.066667556762695
      ],
      "min": [
        0.03333333507180214
      ],
      "type": "SCALAR"
    },
    {
      "bufferView": 7,
      "byteOffset": 6120,
      "componentType": 5126,
      "count": 2,
      "max": [
        9.159015462500975e-06,
        43.76582717895508,
        -5.881424385734135e-06
      ],
      "min": [
        8.20534933154704e-06,
        43.76580810546875,
        -8.525000339432154e-06
      ],
      "type": "VEC3"
    },
    {
      "bufferView": 6,
      "byteOffset": 13600,
      "componentType": 5126,
      "count": 482,
      "max": [
        16.066667556762695
      ],
      "min": [
        0.03333333507180214
      ],
      "type": "SCALAR"
    },
    {
      "bufferView": 8,
      "byteOffset": 46208,
      "componentType": 5126,
      "count": 482,
      "max": [
        0.061744000762701035,
        0.15022636950016022,
        0.04483472928404808,
        0.9859638810157776
      ],
      "min": [
        0.05833781138062477,
        0.14987239241600037,
        0.04363332316279411,
        0.9857564568519592
      ],
      "type": "VEC4"
    },
    {
      "bufferView": 6,
      "byteOffset": 15528,
      "componentType": 5126,
      "count": 2,
      "max": [
        16.066667556762695
      ],
      "min": [
        0.03333333507180214
      ],
      "type": "SCALAR"
    },
    {
      "bufferView": 7,
      "byteOffset": 6144,
      "componentType": 5126,
      "count": 2,
      "max": [
        1.0,
        1.0,
        1.0
      ],
      "min": [
        0.9999997615814209,
        0.9999998807907104,
        1.0
      ],
      "type": "VEC3"
    },
    {
      "bufferView": 6,
      "byteOffset": 15536,
      "componentType": 5126,
      "count": 2,
      "max": [
        16.066667556762695
      ],
      "min": [
        0.03333333507180214
      ],
      "type": "SCALAR"
    },
    {
      "bufferView": 7,
      "byteOffset": 6168,
      "componentType": 5126,
      "count": 2,
      "max": [
        7.735910912742838e-06,
        44.76987075805664,
        7.226022717077285e-05
      ],
      "min": [
        5.591776698565809e-06,
        44.76985549926758,
        7.05514830769971e-05
      ],
      "type": "VEC3"
    },
    {
      "bufferView": 6,
      "byteOffset": 15544,
      "componentType": 5126,
      "count": 482,
      "max": [
        16.066667556762695
      ],
      "min": [
        0.03333333507180214
      ],
      "type": "SCALAR"
    },
    {
      "bufferView": 8,
      "byteOffset": 53920,
      "componentType": 5126,
      "count": 482,
      "max": [
        0.6706680059432983,
        -5.186678322388616e-07,
        5.293194772093557e-05,
        0.7417898774147034
      ],
      "min": [
        0.6706324219703674,
        -0.0002807780692819506,
        4.998896656616125e-07,
        0.7417576313018799
      ],
      "type": "VEC4"
    },
    {
      "bufferView": 6,
      "byteOffset": 17472,
      "componentType": 5126,
      "count": 2,
      "max": [
        16.066667556762695
      ],
      "min": [
        0.03333333507180214
      ],
      "type": "SCALAR"
    },
    {
      "bufferView": 7,
      "byteOffset": 6192,
      "componentType": 5126,
      "count": 2,
      "max": [
        0.9999999403953552,
        0.9999998211860657,
        0.9999999403953552
      ],
      "min": [
        0.9999997615814209,
        0.999999463558197,
        0.9999995827674866
      ],
      "type": "VEC3"
    },
    {
      "bufferView": 6,
      "byteOffset": 17480,
      "componentType": 5126,
      "count": 2,
      "max": [
        16.066667556762695
      ],
      "min": [
        0.03333333507180214
      ],
      "type": "SCALAR"
    },
    {
      "bufferView": 7,
      "byteOffset": 6216,
      "componentType": 5126,
      "count": 2,
      "max": [
        -2.0138677427894436e-06,
        9.26099967956543,
        2.571129300577013e-07
      ],
      "min": [
        -2.0581637727445923e-06,
        9.26099681854248,
        4.849707480047982e-08
      ],
      "type": "VEC3"
    },
    {
      "bufferView": 6,
      "byteOffset": 17488,
      "componentType": 5126,
      "count": 2,
      "max": [
        16.066667556762695
      ],
      "min": [
        0.03333333507180214
      ],
      "type": "SCALAR"
    },
    {
      "bufferView": 8,
      "byteOffset": 61632,
      "componentType": 5126,
      "count": 2,
      "max": [
        -9.23112182249497e-08,
        5.152499954474976e-11,
        -1.668611863264724e-12,
        1.0
      ],
      "min": [
        -9.320280724978147e-08,
        4.493117683468384e-11,
        -1.2582550452944208e-11,
        1.0
      ],
      "type": "VEC4"
    },
    {
      "bufferView": 6,
      "byteOffset": 17496,
      "componentType": 5126,
      "count": 2,
      "max": [
        16.066667556762695
      ],
      "min": [
        0.03333333507180214
      ],
      "type": "SCALAR"
    },
    {
      "bufferView": 7,
      "byteOffset": 6240,
      "componentType": 5126,
      "count": 2,
      "max": [
        1.0000001192092896,
        1.000000238418579,
        1.000000238418579
      ],
      "min": [
        0.9999999403953552,
        1.0,
        0.9999999403953552
      ],
      "type": "VEC3"
    },
    {
      "bufferView": 6,
      "byteOffset": 17504,
      "componentType": 5126,
      "count": 2,
      "max": [
        16.066667556762695
      ],
      "min": [
        0.03333333507180214
      ],
      "type": "SCALAR"
    },
    {
      "bufferView": 7,
      "byteOffset": 6264,
      "componentType": 5126,
      "count": 2,
      "max": [
        7.629399078723509e-06,
        -1.1392605301807635e-05,
        2.974972994707059e-05
      ],
      "min": [
        7.629393621755298e-06,
        -1.7663971448200755e-05,
        2.6770940166898072e-05
      ],
      "type": "VEC3"
    },
    {
      "bufferView": 6,
      "byteOffset": 17512,
      "componentType": 5126,
      "count": 1,
      "max": [
        0.03333333507180214
      ],
      "min": [
        0.03333333507180214
      ],
      "type": "SCALAR"
    },
    {
      "bufferView": 7,
      "byteOffset": 6288,
      "componentType": 5126,
      "count": 1,
      "max": [
        0.9999998807907104,
        0.9999914169311523,
        1.0000003576278687
      ],
      "min": [
        0.9999998807907104,
        0.9999914169311523,
        1.0000003576278687
      ],
      "type": "VEC3"
    },
    {
      "bufferView": 6,
      "byteOffset": 17516,
      "componentType": 5126,
      "count": 2,
      "max": [
        16.066667556762695
      ],
      "min": [
        0.03333333507180214
      ],
      "type": "SCALAR"
    },
    {
      "bufferView": 7,
      "byteOffset": 6300,
      "componentType": 5126,
      "count": 2,
      "max": [
        -1.4305101103673223e-06,
        10.00051212310791,
        -2.714492381983291e-07
      ],
      "min": [
        -1.430514771527669e-06,
        10.000507354736328,
        -6.222263436939102e-06
      ],
      "type": "VEC3"
    },
    {
      "bufferView": 6,
      "byteOffset": 17524,
      "componentType": 5126,
      "count": 2,
      "max": [
        16.066667556762695
      ],
      "min": [
        0.03333333507180214
      ],
      "type": "SCALAR"
    },
    {
      "bufferView": 7,
      "byteOffset": 6324,
      "componentType": 5126,
      "count": 2,
      "max": [
        -7.789313638539852e-11,
        27.594942092895508,
        -0.0014010133454576135
      ],
      "min": [
        -8.166989307056838e-11,
        27.594934463500977,
        -0.0014029949670657516
      ],
      "type": "VEC3"
    },
    {
      "bufferView": 6,
      "byteOffset": 17532,
      "componentType": 5126,
      "count": 2,
      "max": [
        16.066667556762695
      ],
      "min": [
        0.03333333507180214
      ],
      "type": "SCALAR"
    },
    {
      "bufferView": 7,
      "byteOffset": 6348,
      "componentType": 5126,
      "count": 2,
      "max": [
        5.1355284608201046e-11,
        11.683318138122559,
        0.00019573878671508282
      ],
      "min": [
        5.079856327250276e-11,
        11.683314323425293,
        0.0001934261090354994
      ],
      "type": "VEC3"
    },
    {
      "bufferView": 6,
      "byteOffset": 17540,
      "componentType": 5126,
      "count": 56,
      "max": [
        16.066667556762695
      ],
      "min": [
        0.03333333507180214
      ],
      "type": "SCALAR"
    },
    {
      "bufferView": 8,
      "byteOffset": 61664,
      "componentType": 5126,
      "count": 56,
      "max": [
        0.17477348446846008,
        4.491348022384045e-07,
        1.6101820676794887e-07,
        0.9994216561317444
      ],
      "min": [
        0.03400517627596855,
        3.504772507767484e-07,
        -3.0609026424599506e-08,
        0.9846087098121643
      ],
      "type": "VEC4"
    },
    {
      "bufferView": 6,
      "byteOffset": 17764,
      "componentType": 5126,
      "count": 2,
      "max": [
        16.066667556762695
      ],
      "min": [
        0.03333333507180214
      ],
      "type": "SCALAR"
    },
    {
      "bufferView": 7,
      "byteOffset": 6372,
      "componentType": 5126,
      "count": 2,
      "max": [
        6.914144250913523e-06,
        5.435262203216553,
        1.996709397644736e-05
      ],
      "min": [
        6.914143796166172e-06,
        5.435245990753174,
        1.928910205606371e-05
      ],
      "type": "VEC3"
    },
    {
      "bufferView": 6,
      "byteOffset": 17772,
      "componentType": 5126,
      "count": 95,
      "max": [
        16.066667556762695
      ],
      "min": [
        0.03333333507180214
      ],
      "type": "SCALAR"
    },
    {
      "bufferView": 8,
      "byteOffset": 62560,
      "componentType": 5126,
      "count": 95,
      "max": [
        0.4405035972595215,
        2.893699218020629e-07,
        -6.236601990394774e-08,
        0.9316942691802979
      ],
      "min": [
        0.3632435202598572,
        1.395882804899884e-07,
        -1.6549802239751443e-07,
        0.8977508544921875
      ],
      "type": "VEC4"
    },
    {
      "bufferView": 6,
      "byteOffset": 18152,
      "componentType": 5126,
      "count": 2,
      "max": [
        16.066667556762695
      ],
      "min": [
        0.03333333507180214
      ],
      "type": "SCALAR"
    },
    {
      "bufferView": 7,
      "byteOffset": 6396,
      "componentType": 5126,
      "count": 2,
      "max": [
        -1.6689194808350294e-06,
        6.4526848793029785,
        -3.590875712689012e-05
      ],
      "min": [
        -1.6689355106791481e-06,
        6.452672481536865,
        -4.090244328835979e-05
      ],
      "type": "VEC3"
    },
    {
      "bufferView": 6,
      "byteOffset": 18160,
      "componentType": 5126,
      "count": 95,
      "max": [
        16.066667556762695
      ],
      "min": [
        0.03333333507180214
      ],
      "type": "SCALAR"
    },
    {
      "bufferView": 8,
      "byteOffset": 64080,
      "componentType": 5126,
      "count": 95,
      "max": [
        0.20166239142417908,
        0.05186948925256729,
        0.0025167055428028107,
        0.9999167919158936
      ],
      "min": [
        -0.11719760298728943,
        -0.08174776285886765,
        -0.016698168590664864,
        0.9794551134109497
      ],
      "type": "VEC4"
    },
    {
      "bufferView": 6,
      "byteOffset": 18540,
      "componentType": 5126,
      "count": 2,
      "max": [
        16.066667556762695
      ],
      "min": [
        0.03333333507180214
      ],
      "type": "SCALAR"
    },
    {
      "bufferView": 7,
      "byteOffset": 6420,
      "componentType": 5126,
      "count": 2,
      "max": [
        -3.576296876417473e-06,
        6.058017730712891,
        -5.0766426284099e-05
      ],
      "min": [
        -3.5763011965173064e-06,
        6.058017253875732,
        -5.139101995155215e-05
      ],
      "type": "VEC3"
    },
    {
      "bufferView": 6,
      "byteOffset": 18548,
      "componentType": 5126,
      "count": 95,
      "max": [
        16.066667556762695
      ],
      "min": [
        0.03333333507180214
      ],
      "type": "SCALAR"
    },
    {
      "bufferView": 8,
      "byteOffset": 65600,
      "componentType": 5126,
      "count": 95,
      "max": [
        0.2517484128475189,
        0.052122507244348526,
        0.004316226113587618,
        0.9999521374702454
      ],
      "min": [
        -0.06406743079423904,
        -0.08064758777618408,
        -0.020646490156650543,
        0.9677926898002625
      ],
      "type": "VEC4"
    },
    {
      "bufferView": 6,
      "byteOffset": 18928,
      "componentType": 5126,
      "count": 2,
      "max": [
        16.066667556762695
      ],
      "min": [
        0.03333333507180214
      ],
      "type": "SCALAR"
    },
    {
      "bufferView": 7,
      "byteOffset": 6444,
      "componentType": 5126,
      "count": 2,
      "max": [
        7.475718828697797e-12,
        6.402820110321045,
        -2.880184729292523e-05
      ],
      "min": [
        -2.76617140651525e-12,
        6.402812957763672,
        -3.526712680468336e-05
      ],
      "type": "VEC3"
    },
    {
      "bufferView": 6,
      "byteOffset": 18936,
      "componentType": 5126,
      "count": 95,
      "max": [
        16.066667556762695
      ],
      "min": [
        0.03333333507180214
      ],
      "type": "SCALAR"
    },
    {
      "bufferView": 8,
      "byteOffset": 67120,
      "componentType": 5126,
      "count": 95,
      "max": [
        0.169660285115242,
        0.050317633897066116,
        0.0016916417516767979,
        0.9999799132347107
      ],
      "min": [
        -0.2309846729040146,
        -0.08180220425128937,
        -0.013640854507684708,
        0.9729573726654053
      ],
      "type": "VEC4"
    },
    {
      "bufferView": 6,
      "byteOffset": 19316,
      "componentType": 5126,
      "count": 2,
      "max": [
        16.066667556762695
      ],
      "min": [
        0.03333333507180214
      ],
      "type": "SCALAR"
    },
    {
      "bufferView": 7,
      "byteOffset": 6468,
      "componentType": 5126,
      "count": 2,
      "max": [
        -2.622584588607424e-06,
        7.091815948486328,
        -2.045473775069695e-05
      ],
      "min": [
        -2.8609802029677667e-06,
        7.091812610626221,
        -2.554125603637658e-05
      ],
      "type": "VEC3"
    },
    {
      "bufferView": 6,
      "byteOffset": 19324,
      "componentType": 5126,
      "count": 131,
      "max": [
        16.066667556762695
      ],
      "min": [
        0.03333333507180214
      ],
      "type": "SCALAR"
    },
    {
      "bufferView": 8,
      "byteOffset": 68640,
      "componentType": 5126,
      "count": 131,
      "max": [
        0.12250179052352905,
        0.021420864388346672,
        0.07990539073944092,
        0.9999994039535522
      ],
      "min": [
        -0.2589224576950073,
        -0.08187729865312576,
        -0.009360632859170437,
        0.962587296962738
      ],
      "type": "VEC4"
    },
    {
      "bufferView": 6,
      "byteOffset": 19848,
      "componentType": 5126,
      "count": 2,
      "max": [
        16.066667556762695
      ],
      "min": [
        0.03333333507180214
      ],
      "type": "SCALAR"
    },
    {
      "bufferView": 7,
      "byteOffset": 6492,
      "componentType": 5126,
      "count": 2,
      "max": [
        9.536811376165133e-06,
        9.015168190002441,
        -2.5688912501209415e-05
      ],
      "min": [
        9.536792276776396e-06,
        9.015161514282227,
        -2.8489623218774796e-05
      ],
      "type": "VEC3"
    },
    {
      "bufferView": 6,
      "byteOffset": 19856,
      "componentType": 5126,
      "count": 131,
      "max": [
        16.066667556762695
      ],
      "min": [
        0.03333333507180214
      ],
      "type": "SCALAR"
    },
    {
      "bufferView": 8,
      "byteOffset": 70736,
      "componentType": 5126,
      "count": 131,
      "max": [
        -0.07308896631002426,
        0.01847619004547596,
        0.08054440468549728,
        0.9973254203796387
      ],
      "min": [
        -0.22719767689704895,
        -0.08130918443202972,
        -6.223594084531214e-08,
        0.9713906645774841
      ],
      "type": "VEC4"
    },
    {
      "bufferView": 6,
      "byteOffset": 20380,
      "componentType": 5126,
      "count": 2,
      "max": [
        16.066667556762695
      ],
      "min": [
        0.03333333507180214
      ],
      "type": "SCALAR"
    },
    {
      "bufferView": 7,
      "byteOffset": 6516,
      "componentType": 5126,
      "count": 2,
      "max": [
        1.0335260425264892e-11,
        6.233127593994141,
        1.5879087413850357e-06
      ],
      "min": [
        -3.3592835544521416e-12,
        6.233121871948242,
        -8.683950909471605e-06
      ],
      "type": "VEC3"
    },
    {
      "bufferView": 6,
      "byteOffset": 20388,
      "componentType": 5126,
      "count": 131,
      "max": [
        16.066667556762695
      ],
      "min": [
        0.03333333507180214
      ],
      "type": "SCALAR"
    },
    {
      "bufferView": 8,
      "byteOffset": 72832,
      "componentType": 5126,
      "count": 131,
      "max": [
        -0.12391053885221481,
        0.020985102280974388,
        0.07881204038858414,
        0.9922934174537659
      ],
      "min": [
        -0.2869466245174408,
        -0.08027671277523041,
        -0.0018265093676745892,
        0.9565622210502625
      ],
      "type": "VEC4"
    },
    {
      "bufferView": 6,
      "byteOffset": 20912,
      "componentType": 5126,
      "count": 2,
      "max": [
        16.066667556762695
      ],
      "min": [
        0.03333333507180214
      ],
      "type": "SCALAR"
    },
    {
      "bufferView": 7,
      "byteOffset": 6540,
      "componentType": 5126,
      "count": 2,
      "max": [
        5.960493581369519e-06,
        5.4528422355651855,
        -1.9392780359339667e-06
      ],
      "min": [
        5.722062269342132e-06,
        5.452825546264648,
        -1.2088226867490448e-05
      ],
      "type": "VEC3"
    },
    {
      "bufferView": 6,
      "byteOffset": 20920,
      "componentType": 5126,
      "count": 131,
      "max": [
        16.066667556762695
      ],
      "min": [
        0.03333333507180214
      ],
      "type": "SCALAR"
    },
    {
      "bufferView": 8,
      "byteOffset": 74928,
      "componentType": 5126,
      "count": 131,
      "max": [
        -0.1701262891292572,
        0.01685335487127304,
        0.07729657739400864,
        0.9854222536087036
      ],
      "min": [
        -0.2881695628166199,
        -0.07864110916852951,
        -0.0017328198300674558,
        0.9575794339179993
      ],
      "type": "VEC4"
    },
    {
      "bufferView": 6,
      "byteOffset": 21444,
      "componentType": 5126,
      "count": 2,
      "max": [
        16.066667556762695
      ],
      "min": [
        0.03333333507180214
      ],
      "type": "SCALAR"
    },
    {
      "bufferView": 7,
      "byteOffset": 6564,
      "componentType": 5126,
      "count": 2,
      "max": [
        3.8146524730109377e-06,
        4.4942240715026855,
        3.778106838581152e-05
      ],
      "min": [
        3.5761941035161726e-06,
        4.494203567504883,
        3.597154500312172e-05
      ],
      "type": "VEC3"
    },
    {
      "bufferView": 6,
      "byteOffset": 21452,
      "componentType": 5126,
      "count": 131,
      "max": [
        16.066667556762695
      ],
      "min": [
        0.03333333507180214
      ],
      "type": "SCALAR"
    },
    {
      "bufferView": 8,
      "byteOffset": 77024,
      "componentType": 5126,
      "count": 131,
      "max": [
        -0.17110374569892883,
        0.01914377696812153,
        0.07143520563840866,
        0.9828885197639465
      ],
      "min": [
        -0.34825628995895386,
        -0.07627001404762268,
        1.0424223546579015e-06,
        0.9373993873596191
      ],
      "type": "VEC4"
    },
    {
      "bufferView": 6,
      "byteOffset": 21976,
      "componentType": 5126,
      "count": 2,
      "max": [
        16.066667556762695
      ],
      "min": [
        0.03333333507180214
      ],
      "type": "SCALAR"
    },
    {
      "bufferView": 7,
      "byteOffset": 6588,
      "componentType": 5126,
      "count": 2,
      "max": [
        3.0992932806839235e-06,
        6.2683210372924805,
        -2.342648986086715e-05
      ],
      "min": [
        2.8609858873096528e-06,
        6.26830530166626,
        -2.3644193788641132e-05
      ],
      "type": "VEC3"
    },
    {
      "bufferView": 6,
      "byteOffset": 21984,
      "componentType": 5126,
      "count": 177,
      "max": [
        16.066667556762695
      ],
      "min": [
        0.03333333507180214
      ],
      "type": "SCALAR"
    },
    {
      "bufferView": 8,
      "byteOffset": 79120,
      "componentType": 5126,
      "count": 177,
      "max": [
        0.01635919138789177,
        0.0008266021031886339,
        0.07120499759912491,
        0.9996681213378906
      ],
      "min": [
        -0.2347150444984436,
        -0.0717533677816391,
        -0.00141726469155401,
        0.972064197063446
      ],
      "type": "VEC4"
    },
    {
      "bufferView": 6,
      "byteOffset": 22692,
      "componentType": 5126,
      "count": 2,
      "max": [
        16.066667556762695
      ],
      "min": [
        0.03333333507180214
      ],
      "type": "SCALAR"
    },
    {
      "bufferView": 7,
      "byteOffset": 6612,
      "componentType": 5126,
      "count": 2,
      "max": [
        1.6689125459379284e-06,
        3.1453585624694824,
        -9.8904502010555e-06
      ],
      "min": [
        1.668840013735462e-06,
        3.1453583240509033,
        -1.77483816514723e-05
      ],
      "type": "VEC3"
    },
    {
      "bufferView": 6,
      "byteOffset": 22700,
      "componentType": 5126,
      "count": 177,
      "max": [
        16.066667556762695
      ],
      "min": [
        0.03333333507180214
      ],
      "type": "SCALAR"
    },
    {
      "bufferView": 8,
      "byteOffset": 81952,
      "componentType": 5126,
      "count": 177,
      "max": [
        0.030492296442389488,
        0.0004482766380533576,
        0.07048070430755615,
        0.9999189972877502
      ],
      "min": [
        -0.22202466428279877,
        -0.0670049861073494,
        -0.003591961693018675,
        0.9750410318374634
      ],
      "type": "VEC4"
    },
    {
      "bufferView": 6,
      "byteOffset": 23408,
      "componentType": 5126,
      "count": 2,
      "max": [
        16.066667556762695
      ],
      "min": [
        0.03333333507180214
      ],
      "type": "SCALAR"
    },
    {
      "bufferView": 7,
      "byteOffset": 6636,
      "componentType": 5126,
      "count": 2,
      "max": [
        5.961715601188189e-07,
        3.7400107383728027,
        -1.378900560666807e-05
      ],
      "min": [
        5.960523026260489e-07,
        3.7399957180023193,
        -1.88004214578541e-05
      ],
      "type": "VEC3"
    },
    {
      "bufferView": 6,
      "byteOffset": 23416,
      "componentType": 5126,
      "count": 411,
      "max": [
        16.066667556762695
      ],
      "min": [
        0.03333333507180214
      ],
      "type": "SCALAR"
    },
    {
      "bufferView": 8,
      "byteOffset": 84784,
      "componentType": 5126,
      "count": 411,
      "max": [
        -0.4615347385406494,
        0.08121958374977112,
        -0.034610748291015625,
        0.8850982785224915
      ],
      "min": [
        -0.47187238931655884,
        -0.04887654259800911,
        -0.05671447888016701,
        0.8760840892791748
      ],
      "type": "VEC4"
    },
    {
      "bufferView": 6,
      "byteOffset": 25060,
      "componentType": 5126,
      "count": 2,
      "max": [
        16.066667556762695
      ],
      "min": [
        0.03333333507180214
      ],
      "type": "SCALAR"
    },
    {
      "bufferView": 7,
      "byteOffset": 6660,
      "componentType": 5126,
      "count": 2,
      "max": [
        -6.858130063847057e-07,
        12.059233665466309,
        0.00016875512665137649
      ],
      "min": [
        -1.5202679151116172e-06,
        12.059231758117676,
        0.00015054730465635657
      ],
      "type": "VEC3"
    },
    {
      "bufferView": 6,
      "byteOffset": 25068,
      "componentType": 5126,
      "count": 2,
      "max": [
        16.066667556762695
      ],
      "min": [
        0.03333333507180214
      ],
      "type": "SCALAR"
    },
    {
      "bufferView": 8,
      "byteOffset": 91360,
      "componentType": 5126,
      "count": 2,
      "max": [
        -0.2717330753803253,
        7.0908563465366115e-09,
        -4.2700190761024714e-07,
        0.9623726606369019
      ],
      "min": [
        -0.27173319458961487,
        -2.7811253744403075e-08,
        -4.6105026285658823e-07,
        0.9623726606369019
      ],
      "type": "VEC4"
    },
    {
      "bufferView": 6,
      "byteOffset": 25076,
      "componentType": 5126,
      "count": 2,
      "max": [
        16.06665802001953
      ],
      "min": [
        0.03333333507180214
      ],
      "type": "SCALAR"
    },
    {
      "bufferView": 7,
      "byteOffset": 6684,
      "componentType": 5126,
      "count": 2,
      "max": [
        1.0,
        1.0000001192092896,
        1.000000238418579
      ],
      "min": [
        1.0,
        1.0000001192092896,
        1.000000238418579
      ],
      "type": "VEC3"
    },
    {
      "bufferView": 6,
      "byteOffset": 25084,
      "componentType": 5126,
      "count": 2,
      "max": [
        16.066667556762695
      ],
      "min": [
        0.03333333507180214
      ],
      "type": "SCALAR"
    },
    {
      "bufferView": 7,
      "byteOffset": 6708,
      "componentType": 5126,
      "count": 2,
      "max": [
        1.6257106835837476e-05,
        4.94767427444458,
        3.837814074358903e-05
      ],
      "min": [
        1.5467338016605936e-05,
        4.947668075561523,
        1.4223351172404364e-05
      ],
      "type": "VEC3"
    },
    {
      "bufferView": 6,
      "byteOffset": 25092,
      "componentType": 5126,
      "count": 2,
      "max": [
        16.066667556762695
      ],
      "min": [
        0.03333333507180214
      ],
      "type": "SCALAR"
    },
    {
      "bufferView": 8,
      "byteOffset": 91392,
      "componentType": 5126,
      "count": 2,
      "max": [
        -7.343479637711425e-07,
        1.1920516129748648e-07,
        1.4540313397759519e-12,
        1.0
      ],
      "min": [
        -7.594936732857605e-07,
        1.1734252325368288e-07,
        -3.7238412353701733e-09,
        1.0
      ],
      "type": "VEC4"
    },
    {
      "bufferView": 6,
      "byteOffset": 25100,
      "componentType": 5126,
      "count": 2,
      "max": [
        16.06665802001953
      ],
      "min": [
        0.03333333507180214
      ],
      "type": "SCALAR"
    },
    {
      "bufferView": 7,
      "byteOffset": 6732,
      "componentType": 5126,
      "count": 2,
      "max": [
        0.9999999403953552,
        0.9999999403953552,
        1.0
      ],
      "min": [
        0.9999999403953552,
        0.9999999403953552,
        1.0
      ],
      "type": "VEC3"
    },
    {
      "bufferView": 6,
      "byteOffset": 25108,
      "componentType": 5126,
      "count": 2,
      "max": [
        16.066667556762695
      ],
      "min": [
        0.03333333507180214
      ],
      "type": "SCALAR"
    },
    {
      "bufferView": 7,
      "byteOffset": 6756,
      "componentType": 5126,
      "count": 2,
      "max": [
        -9.632010005589109e-06,
        3.273146867752075,
        -1.82644522190094
      ],
      "min": [
        -1.0406935871287715e-05,
        3.2731409072875977,
        -1.8264617919921875
      ],
      "type": "VEC3"
    },
    {
      "bufferView": 6,
      "byteOffset": 25116,
      "componentType": 5126,
      "count": 2,
      "max": [
        16.066667556762695
      ],
      "min": [
        0.03333333507180214
      ],
      "type": "SCALAR"
    },
    {
      "bufferView": 8,
      "byteOffset": 91424,
      "componentType": 5126,
      "count": 2,
      "max": [
        -0.06436373293399811,
        -9.122329061028722e-07,
        -6.917755399626913e-07,
        0.9979265332221985
      ],
      "min": [
        -0.06436377763748169,
        -9.404122351952537e-07,
        -8.103481832222315e-07,
        0.9979265332221985
      ],
      "type": "VEC4"
    },
    {
      "bufferView": 6,
      "byteOffset": 25124,
      "componentType": 5126,
      "count": 2,
      "max": [
        16.06665802001953
      ],
      "min": [
        0.03333333507180214
      ],
      "type": "SCALAR"
    },
    {
      "bufferView": 7,
      "byteOffset": 6780,
      "componentType": 5126,
      "count": 2,
      "max": [
        1.0,
        1.000000238418579,
        1.0000004768371582
      ],
      "min": [
        1.0,
        1.000000238418579,
        1.0000004768371582
      ],
      "type": "VEC3"
    },
    {
      "bufferView": 6,
      "byteOffset": 25132,
      "componentType": 5126,
      "count": 2,
      "max": [
        16.066667556762695
      ],
      "min": [
        0.03333333507180214
      ],
      "type": "SCALAR"
    },
    {
      "bufferView": 7,
      "byteOffset": 6804,
      "componentType": 5126,
      "count": 2,
      "max": [
        -1.1891115718754008e-05,
        7.09376335144043,
        4.90145648655016e-05
      ],
      "min": [
        -1.5586598237860017e-05,
        7.093761444091797,
        2.961300197057426e-05
      ],
      "type": "VEC3"
    },
    {
      "bufferView": 6,
      "byteOffset": 25140,
      "componentType": 5126,
      "count": 2,
      "max": [
        16.066667556762695
      ],
      "min": [
        0.03333333507180214
      ],
      "type": "SCALAR"
    },
    {
      "bufferView": 8,
      "byteOffset": 91456,
      "componentType": 5126,
      "count": 2,
      "max": [
        -0.14361947774887085,
        1.0897668971665553e-06,
        -1.5813906202311045e-06,
        0.9896329641342163
      ],
      "min": [
        -0.14361949265003204,
        1.0697284551497432e-06,
        -1.5897750245130737e-06,
        0.9896329641342163
      ],
      "type": "VEC4"
    },
    {
      "bufferView": 6,
      "byteOffset": 25148,
      "componentType": 5126,
      "count": 2,
      "max": [
        16.066667556762695
      ],
      "min": [
        0.03333333507180214
      ],
      "type": "SCALAR"
    },
    {
      "bufferView": 7,
      "byteOffset": 6828,
      "componentType": 5126,
      "count": 2,
      "max": [
        1.0000001192092896,
        1.0000001192092896,
        1.0000001192092896
      ],
      "min": [
        1.0,
        0.9999998211860657,
        1.0000001192092896
      ],
      "type": "VEC3"
    },
    {
      "bufferView": 6,
      "byteOffset": 25156,
      "componentType": 5126,
      "count": 2,
      "max": [
        16.066667556762695
      ],
      "min": [
        0.03333333507180214
      ],
      "type": "SCALAR"
    },
    {
      "bufferView": 7,
      "byteOffset": 6852,
      "componentType": 5126,
      "count": 2,
      "max": [
        2.0861614302702947e-06,
        5.262723445892334,
        4.212558633298613e-05
      ],
      "min": [
        8.34460024634609e-07,
        5.262721061706543,
        3.492832547635771e-05
      ],
      "type": "VEC3"
    },
    {
      "bufferView": 6,
      "byteOffset": 25164,
      "componentType": 5126,
      "count": 2,
      "max": [
        16.066667556762695
      ],
      "min": [
        0.03333333507180214
      ],
      "type": "SCALAR"
    },
    {
      "bufferView": 8,
      "byteOffset": 91488,
      "componentType": 5126,
      "count": 2,
      "max": [
        3.310851752758026e-07,
        2.7579312700254377e-07,
        1.8626047371128607e-09,
        1.0
      ],
      "min": [
        3.0710361897945404e-07,
        2.702051915548509e-07,
        -4.656661722890476e-09,
        1.0
      ],
      "type": "VEC4"
    },
    {
      "bufferView": 6,
      "byteOffset": 25172,
      "componentType": 5126,
      "count": 2,
      "max": [
        16.066667556762695
      ],
      "min": [
        0.03333333507180214
      ],
      "type": "SCALAR"
    },
    {
      "bufferView": 7,
      "byteOffset": 6876,
      "componentType": 5126,
      "count": 2,
      "max": [
        1.0,
        1.0,
        1.0
      ],
      "min": [
        1.0,
        1.0,
        0.9999998807907104
      ],
      "type": "VEC3"
    },
    {
      "bufferView": 6,
      "byteOffset": 25180,
      "componentType": 5126,
      "count": 2,
      "max": [
        16.066667556762695
      ],
      "min": [
        0.03333333507180214
      ],
      "type": "SCALAR"
    },
    {
      "bufferView": 7,
      "byteOffset": 6900,
      "componentType": 5126,
      "count": 2,
      "max": [
        2.477576520679148e-13,
        7.640826225280762,
        -1.5714264009147882e-05
      ],
      "min": [
        -3.280844020937812e-13,
        7.6408162117004395,
        -2.8155918698757887e-05
      ],
      "type": "VEC3"
    },
    {
      "bufferView": 6,
      "byteOffset": 25188,
      "componentType": 5126,
      "count": 64,
      "max": [
        16.066667556762695
      ],
      "min": [
        0.03333333507180214
      ],
      "type": "SCALAR"
    },
    {
      "bufferView": 8,
      "byteOffset": 91520,
      "componentType": 5126,
      "count": 64,
      "max": [
        -0.18619951605796814,
        0.016221296042203903,
        0.08525902032852173,
        0.9823780655860901
      ],
      "min": [
        -0.18690481781959534,
        -0.008784031495451927,
        -0.04616960138082504,
        0.9786713123321533
      ],
      "type": "VEC4"
    },
    {
      "bufferView": 6,
      "byteOffset": 25444,
      "componentType": 5126,
      "count": 2,
      "max": [
        16.066667556762695
      ],
      "min": [
        0.03333333507180214
      ],
      "type": "SCALAR"
    },
    {
      "bufferView": 7,
      "byteOffset": 6924,
      "componentType": 5126,
      "count": 2,
      "max": [
        -4.768373287333816e-07,
        7.654573440551758,
        -2.854359308912535e-06
      ],
      "min": [
        -4.768411372424453e-07,
        7.654571533203125,
        -1.0471081623109058e-05
      ],
      "type": "VEC3"
    },
    {
      "bufferView": 6,
      "byteOffset": 25452,
      "componentType": 5126,
      "count": 482,
      "max": [
        16.066667556762695
      ],
      "min": [
        0.03333333507180214
      ],
      "type": "SCALAR"
    },
    {
      "bufferView": 6,
      "byteOffset": 27380,
      "componentType": 5126,
      "count": 1446,
      "max": [
        1.0
      ],
      "min": [
        0.0
      ],
      "type": "SCALAR"
    }
  ],
  "animations": [
    {
      "channels": [
        {
          "sampler": 0,
          "target": {
            "node": 8,
            "path": "translation"
          }
        },
        {
          "sampler": 1,
          "target": {
            "node": 8,
            "path": "scale"
          }
        },
        {
          "sampler": 2,
          "target": {
            "node": 9,
            "path": "translation"
          }
        },
        {
          "sampler": 3,
          "target": {
            "node": 9,
            "path": "rotation"
          }
        },
        {
          "sampler": 4,
          "target": {
            "node": 9,
            "path": "scale"
          }
        },
        {
          "sampler": 5,
          "target": {
            "node": 10,
            "path": "translation"
          }
        },
        {
          "sampler": 6,
          "target": {
            "node": 10,
            "path": "rotation"
          }
        },
        {
          "sampler": 7,
          "target": {
            "node": 10,
            "path": "scale"
          }
        },
        {
          "sampler": 8,
          "target": {
            "node": 11,
            "path": "translation"
          }
        },
        {
          "sampler": 9,
          "target": {
            "node": 11,
            "path": "rotation"
          }
        },
        {
          "sampler": 10,
          "target": {
            "node": 11,
            "path": "scale"
          }
        },
        {
          "sampler": 11,
          "target": {
            "node": 12,
            "path": "translation"
          }
        },
        {
          "sampler": 12,
          "target": {
            "node": 12,
            "path": "rotation"
          }
        },
        {
          "sampler": 13,
          "target": {
            "node": 12,
            "path": "scale"
          }
        },
        {
          "sampler": 14,
          "target": {
            "node": 13,
            "path": "translation"
          }
        },
        {
          "sampler": 15,
          "target": {
            "node": 13,
            "path": "rotation"
          }
        },
        {
          "sampler": 16,
          "target": {
            "node": 13,
            "path": "scale"
          }
        },
        {
          "sampler": 17,
          "target": {
            "node": 14,
            "path": "translation"
          }
        },
        {
          "sampler": 18,
          "target": {
            "node": 14,
            "path": "rotation"
          }
        },
        {
          "sampler": 19,
          "target": {
            "node": 14,
            "path": "scale"
          }
        },
        {
          "sampler": 20,
          "target": {
            "node": 15,
            "path": "translation"
          }
        },
        {
          "sampler": 21,
          "target": {
            "node": 15,
            "path": "rotation"
          }
        },
        {
          "sampler": 22,
          "target": {
            "node": 15,
            "path": "scale"
          }
        },
        {
          "sampler": 23,
          "target": {
            "node": 16,
            "path": "translation"
          }
        },
        {
          "sampler": 24,
          "target": {
            "node": 16,
            "path": "rotation"
          }
        },
        {
          "sampler": 25,
          "target": {
            "node": 16,
            "path": "scale"
          }
        },
        {
          "sampler": 26,
          "target": {
            "node": 17,
            "path": "translation"
          }
        },
        {
          "sampler": 27,
          "target": {
            "node": 17,
            "path": "rotation"
          }
        },
        {
          "sampler": 28,
          "target": {
            "node": 17,
            "path": "scale"
          }
        },
        {
          "sampler": 29,
          "target": {
            "node": 18,
            "path": "translation"
          }
        },
        {
          "sampler": 30,
          "target": {
            "node": 18,
            "path": "rotation"
          }
        },
        {
          "sampler": 31,
          "target": {
            "node": 18,
            "path": "scale"
          }
        },
        {
          "sampler": 32,
          "target": {
            "node": 19,
            "path": "translation"
          }
        },
        {
          "sampler": 33,
          "target": {
            "node": 19,
            "path": "scale"
          }
        },
        {
          "sampler": 34,
          "target": {
            "node": 20,
            "path": "translation"
          }
        },
        {
          "sampler": 35,
          "target": {
            "node": 21,
            "path": "translation"
          }
        },
        {
          "sampler": 36,
          "target": {
            "node": 22,
            "path": "translation"
          }
        },
        {
          "sampler": 37,
          "target": {
            "node": 22,
            "path": "rotation"
          }
        },
        {
          "sampler": 38,
          "target": {
            "node": 23,
            "path": "translation"
          }
        },
        {
          "sampler": 39,
          "target": {
            "node": 23,
            "path": "rotation"
          }
        },
        {
          "sampler": 40,
          "target": {
            "node": 24,
            "path": "translation"
          }
        },
        {
          "sampler": 41,
          "target": {
            "node": 24,
            "path": "rotation"
          }
        },
        {
          "sampler": 42,
          "target": {
            "node": 25,
            "path": "translation"
          }
        },
        {
          "sampler": 43,
          "target": {
            "node": 25,
            "path": "rotation"
          }
        },
        {
          "sampler": 44,
          "target": {
            "node": 26,
            "path": "translation"
          }
        },
        {
          "sampler": 45,
          "target": {
            "node": 26,
            "path": "rotation"
          }
        },
        {
          "sampler": 46,
          "target": {
            "node": 27,
            "path": "translation"
          }
        },
        {
          "sampler": 47,
          "target": {
            "node": 27,
            "path": "rotation"
          }
        },
        {
          "sampler": 48,
          "target": {
            "node": 28,
            "path": "translation"
          }
        },
        {
          "sampler": 49,
          "target": {
            "node": 28,
            "path": "rotation"
          }
        },
        {
          "sampler": 50,
          "target": {
            "node": 29,
            "path": "translation"
          }
        },
        {
          "sampler": 51,
          "target": {
            "node": 29,
            "path": "rotation"
          }
        },
        {
          "sampler": 52,
          "target": {
            "node": 30,
            "path": "translation"
          }
        },
        {
          "sampler": 53,
          "target": {
            "node": 30,
            "path": "rotation"
          }
        },
        {
          "sampler": 54,
          "target": {
            "node": 31,
            "path": "translation"
          }
        },
        {
          "sampler": 55,
          "target": {
            "node": 31,
            "path": "rotation"
          }
        },
        {
          "sampler": 56,
          "target": {
            "node": 32,
            "path": "translation"
          }
        },
        {
          "sampler": 57,
          "target": {
            "node": 32,
            "path": "rotation"
          }
        },
        {
          "sampler": 58,
          "target": {
            "node": 33,
            "path": "translation"
          }
        },
        {
          "sampler": 59,
          "target": {
            "node": 33,
            "path": "rotation"
          }
        },
        {
          "sampler": 60,
          "target": {
            "node": 34,
            "path": "translation"
          }
        },
        {
          "sampler": 61,
          "target": {
            "node": 34,
            "path": "rotation"
          }
        },
        {
          "sampler": 62,
          "target": {
            "node": 35,
            "path": "translation"
          }
        },
        {
          "sampler": 63,
          "target": {
            "node": 35,
            "path": "rotation"
          }
        },
        {
          "sampler": 64,
          "target": {
            "node": 35,
            "path": "scale"
          }
        },
        {
          "sampler": 65,
          "target": {
            "node": 36,
            "path": "translation"
          }
        },
        {
          "sampler": 66,
          "target": {
            "node": 36,
            "path": "rotation"
          }
        },
        {
          "sampler": 67,
          "target": {
            "node": 36,
            "path": "scale"
          }
        },
        {
          "sampler": 68,
          "target": {
            "node": 37,
            "path": "translation"
          }
        },
        {
          "sampler": 69,
          "target": {
            "node": 37,
            "path": "rotation"
          }
        },
        {
          "sampler": 70,
          "target": {
            "node": 37,
            "path": "scale"
          }
        },
        {
          "sampler": 71,
          "target": {
            "node": 38,
            "path": "translation"
          }
        },
        {
          "sampler": 72,
          "target": {
            "node": 38,
            "path": "rotation"
          }
        },
        {
          "sampler": 73,
          "target": {
            "node": 38,
            "path": "scale"
          }
        },
        {
          "sampler": 74,
          "target": {
            "node": 39,
            "path": "translation"
          }
        },
        {
          "sampler": 75,
          "target": {
            "node": 39,
            "path": "rotation"
          }
        },
        {
          "sampler": 76,
          "target": {
            "node": 39,
            "path": "scale"
          }
        },
        {
          "sampler": 77,
          "target": {
            "node": 40,
            "path": "translation"
          }
        },
        {
          "sampler": 78,
          "target": {
            "node": 40,
            "path": "rotation"
          }
        },
        {
          "sampler": 79,
          "target": {
            "node": 41,
            "path": "translation"
          }
        },
        {
          "sampler": 80,
          "target": {
            "node": 7,
            "path": "weights"
          }
        }
      ],
      "name": "Animation",
      "samplers": [
        {
          "input": 17,
          "interpolation": "LINEAR",
          "output": 18
        },
        {
          "input": 19,
          "interpolation": "LINEAR",
          "output": 20
        },
        {
          "input": 21,
          "interpolation": "LINEAR",
          "output": 22
        },
        {
          "input": 23,
          "interpolation": "LINEAR",
          "output": 24
        },
        {
          "input": 25,
          "interpolation": "LINEAR",
          "output": 26
        },
        {
          "input": 27,
          "interpolation": "LINEAR",
          "output": 28
        },
        {
          "input": 29,
          "interpolation": "LINEAR",
          "output": 30
        },
        {
          "input": 31,
          "interpolation": "LINEAR",
          "output": 32
        },
        {
          "input": 33,
          "interpolation": "LINEAR",
          "output": 34
        },
        {
          "input": 35,
          "interpolation": "LINEAR",
          "output": 36
        },
        {
          "input": 37,
          "interpolation": "LINEAR",
          "output": 38
        },
        {
          "input": 39,
          "interpolation": "LINEAR",
          "output": 40
        },
        {
          "input": 41,
          "interpolation": "LINEAR",
          "output": 42
        },
        {
          "input": 43,
          "interpolation": "LINEAR",
          "output": 44
        },
        {
          "input": 45,
          "interpolation": "LINEAR",
          "output": 46
        },
        {
          "input": 47,
          "interpolation": "LINEAR",
          "output": 48
        },
        {
          "input": 49,
          "interpolation": "LINEAR",
          "output": 50
        },
        {
          "input": 51,
          "interpolation": "LINEAR",
          "output": 52
        },
        {
          "input": 53,
          "interpolation": "LINEAR",
          "output": 54
        },
        {
          "input": 55,
          "interpolation": "LINEAR",
          "output": 56
        },
        {
          "input": 57,
          "interpolation": "LINEAR",
          "output": 58
        },
        {
          "input": 59,
          "interpolation": "LINEAR",
          "output": 60
        },
        {
          "input": 61,
          "interpolation": "LINEAR",
          "output": 62
        },
        {
          "input": 63,
          "interpolation": "LINEAR",
          "output": 64
        },
        {
          "input": 65,
          "interpolation": "LINEAR",
          "output": 66
        },
        {
          "input": 67,
          "interpolation": "LINEAR",
          "output": 68
        },
        {
          "input": 69,
          "interpolation": "LINEAR",
          "output": 70
        },
        {
          "input": 71,
          "interpolation": "LINEAR",
          "output": 72
        },
        {
          "input": 73,
          "interpolation": "LINEAR",
          "output": 74
        },
        {
          "input": 75,
          "interpolation": "LINEAR",
          "output": 76
        },
        {
          "input": 77,
          "interpolation": "LINEAR",
          "output": 78
        },
        {
          "input": 79,
          "interpolation": "LINEAR",
          "output": 80
        },
        {
          "input": 81,
          "interpolation": "LINEAR",
          "output": 82
        },
        {
          "input": 83,
          "interpolation": "LINEAR",
          "output": 84
        },
        {
          "input": 85,
          "interpolation": "LINEAR",
          "output": 86
        },
        {
          "input": 87,
          "interpolation": "LINEAR",
          "output": 88
        },
        {
          "input": 89,
          "interpolation": "LINEAR",
          "output": 90
        },
        {
          "input": 91,
          "interpolation": "LINEAR",
          "output": 92
        },
        {
          "input": 93,
          "interpolation": "LINEAR",
          "output": 94
        },
        {
          "input": 95,
          "interpolation": "LINEAR",
          "output": 96
        },
        {
          "input": 97,
          "interpolation": "LINEAR",
          "output": 98
        },
        {
          "input": 99,
          "interpolation": "LINEAR",
          "output": 100
        },
        {
          "input": 101,
          "interpolation": "LINEAR",
          "output": 102
        },
        {
          "input": 103,
          "interpolation": "LINEAR",
          "output": 104
        },
        {
          "input": 105,
          "interpolation": "LINEAR",
          "output": 106
        },
        {
          "input": 107,
          "interpolation": "LINEAR",
          "output": 108
        },
        {
          "input": 109,
          "interpolation": "LINEAR",
          "output": 110
        },
        {
          "input": 111,
          "interpolation": "LINEAR",
          "output": 112
        },
        {
          "input": 113,
          "interpolation": "LINEAR",
          "output": 114
        },
        {
          "input": 115,
          "interpolation": "LINEAR",
          "output": 116
        },
        {
          "input": 117,
          "interpolation": "LINEAR",
          "output": 118
        },
        {
          "input": 119,
          "interpolation": "LINEAR",
          "output": 120
        },
        {
          "input": 121,
          "interpolation": "LINEAR",
          "output": 122
        },
        {
          "input": 123,
          "interpolation": "LINEAR",
          "output": 124
        },
        {
          "input": 125,
          "interpolation": "LINEAR",
          "output": 126
        },
        {
          "input": 127,
          "interpolation": "LINEAR",
          "output": 128
        },
        {
          "input": 129,
          "interpolation": "LINEAR",
          "output": 130
        },
        {
          "input": 131,
          "interpolation": "LINEAR",
          "output": 132
        },
        {
          "input": 133,
          "interpolation": "LINEAR",
          "output": 134
        },
        {
          "input": 135,
          "interpolation": "LINEAR",
          "output": 136
        },
        {
          "input": 137,
          "interpolation": "LINEAR",
          "output": 138
        },
        {
          "input": 139,
          "interpolation": "LINEAR",
          "output": 140
        },
        {
          "input": 141,
          "interpolation": "LINEAR",
          "output": 142
        },
        {
          "input": 143,
          "interpolation": "LINEAR",
          "output": 144
        },
        {
          "input": 145,
          "interpolation": "LINEAR",
          "output": 146
        },
        {
          "input": 147,
          "interpolation": "LINEAR",
          "output": 148
        },
        {
          "input": 149,
          "interpolation": "LINEAR",
          "output": 150
        },
        {
          "input": 151,
          "interpolation": "LINEAR",
          "output": 152
        },
        {
          "input": 153,
          "interpolation": "LINEAR",
          "output": 154
        },
        {
          "input": 155,
          "interpolation": "LINEAR",
          "output": 156
        },
        {
          "input": 157,
          "interpolation": "LINEAR",
          "output": 158
        },
        {
          "input": 159,
          "interpolation": "LINEAR",
          "output": 160
        },
        {
          "input": 161,
          "interpolation": "LINEAR",
          "output": 162
        },
        {
          "input": 163,
          "interpolation": "LINEAR",
          "output": 164
        },
        {
          "input": 165,
          "interpolation": "LINEAR",
          "output": 166
        },
        {
          "input": 167,
          "interpolation": "LINEAR",
          "output": 168
        },
        {
          "input": 169,
          "interpolation": "LINEAR",
          "output": 170
        },
        {
          "input": 171,
          "interpolation": "LINEAR",
          "output": 172
        },
        {
          "input": 173,
          "interpolation": "LINEAR",
          "output": 174
        },
        {
          "input": 175,
          "interpolation": "LINEAR",
          "output": 176
        },
        {
          "input": 177,
          "interpolation": "LINEAR",
          "output": 178
        }
      ]
    }
  ],
  "asset": {
    "extras": {
      "author": "kenchoo (https://sketchfab.com/kenchoo)",
      "license": "CC-BY-4.0 (http://creativecommons.org/licenses/by/4.0/)",
      "source": "https://sketchfab.com/3d-models/flamingosf-1e3177972173413c9533f59395bd4910",
      "title": "Flamingosf"
    },
    "generator": "Sketchfab-16.0.0",
    "version": "2.0"
  },
  "bufferViews": [
    {
      "buffer": 0,
      "byteLength": 57952,
      "byteStride": 8,
      "name": "shortBufferViews",
      "target": 34962
    },
    {
      "buffer": 0,
      "byteLength": 163056,
      "byteOffset": 57952,
      "name": "floatBufferViews",
      "target": 34963
    },
    {
      "buffer": 0,
      "byteLength": 231808,
      "byteOffset": 221008,
      "byteStride": 8,
      "name": "floatBufferViews",
      "target": 34962
    },
    {
      "buffer": 0,
      "byteLength": 695424,
      "byteOffset": 452816,
      "byteStride": 12,
      "name": "floatBufferViews",
      "target": 34962
    },
    {
      "buffer": 0,
      "byteLength": 231808,
      "byteOffset": 1148240,
      "byteStride": 16,
      "name": "floatBufferViews",
      "target": 34962
    },
    {
      "buffer": 0,
      "byteLength": 2240,
      "byteOffset": 1380048,
      "name": "floatBufferViews"
    },
    {
      "buffer": 0,
      "byteLength": 33164,
      "byteOffset": 1382288,
      "name": "floatBufferViews"
    },
    {
      "buffer": 0,
      "byteLength": 6948,
      "byteOffset": 1415452,
      "byteStride": 12,
      "name": "floatBufferViews"
    },
    {
      "buffer": 0,
      "byteLength": 92544,
      "byteOffset": 1422400,
      "byteStride": 16,
      "name": "floatBufferViews"
    }
  ],
  "buffers": [
    {
      "byteLength": 1514944,
      "uri": "scene.bin"
    }
  ],
  "extensionsUsed": [
    "KHR_materials_specular"
  ],
  "images": [
    {
      "uri": "textures/flamigo_baseColor.png"
    },
    {
      "uri": "textures/flamigo_metallicRoughness.png"
    },
    {
      "uri": "textures/flamigo_normal.png"
    }
  ],
  "materials": [
    {
      "doubleSided": true,
      "extensions": {
        "KHR_materials_specular": {
          "specularColorFactor": [
            1.0,
            1.0,
            1.0
          ],
          "specularFactor": 1.0
        }
      },
      "name": "flamigo",
      "normalTexture": {
        "index": 2,
        "scale": 0.1,
        "texCoord": 2
      },
      "pbrMetallicRoughness": {
        "baseColorTexture": {
          "index": 0
        },
        "metallicFactor": 0.127273,
        "metallicRoughnessTexture": {
          "index": 1,
          "texCoord": 1
        }
      }
    }
  ],
  "meshes": [
    {
      "name": "mesh_0",
      "primitives": [
        {
          "attributes": {
            "JOINTS_0": 15,
            "NORMAL": 1,
            "POSITION": 0,
            "TANGENT": 2,
            "TEXCOORD_0": 3,
            "TEXCOORD_1": 4,
            "TEXCOORD_2": 5,
            "TEXCOORD_3": 6,
            "WEIGHTS_0": 16
          },
          "indices": 13,
          "material": 0,
          "mode": 4,
          "targets": [
            {
              "NORMAL": 8,
              "POSITION": 7
            },
            {
              "NORMAL": 10,
              "POSITION": 9
            },
            {
              "NORMAL": 12,
              "POSITION": 11
            }
          ]
        }
      ],
      "weights": [
        0.0,
        0.0,
        0.0
      ]
    }
  ],
  "nodes": [
    {
      "children": [
        1
      ],
      "matrix": [
        1.0,
        0.0,
        0.0,
        0.0,
        0.0,
        2.220446049250313e-16,
        -1.0,
        0.0,
        0.0,
        1.0,
        2.220446049250313e-16,
        0.0,
        0.0,
        0.0,
        0.0,
        1.0
      ],
      "name": "Sketchfab_model"
    },
    {
      "children": [
        2
      ],
      "name": "root"
    },
    {
      "children": [
        3
      ],
      "matrix": [
        1.0,
        0.0,
        0.0,
        0.0,
        0.0,
        2.220446049250313e-16,
        1.0,
        0.0,
        0.0,
        -1.0,
        2.220446049250313e-16,
        0.0,
        0.0,
        0.0,
        0.0,
        1.0
      ],
      "name": "GLTF_SceneRootNode"
    },
    {
      "children": [
        4
      ],
      "matrix": [
        1.0,
        0.0,
        0.0,
        0.0,
        0.0,
        -3.371747936409264e-07,
        0.999999999999943,
        0.0,
        0.0,
        -0.999999999999943,
        -3.371747936409264e-07,
        0.0,
        0.0,
        0.0,
        0.0,
        1.0
      ],
      "name": "Armature_35"
    },
    {
      "children": [
        5,
        7,
        6
      ],
      "name": "GLTF_created_0"
    },
    {
      "children": [
        8
      ],
      "name": "GLTF_created_0_rootJoint"
    },
    {
      "name": "flamigo body_34"
    },
    {
      "mesh": 0,
      "name": "Object_7",
      "skin": 0
    },
    {
      "children": [
        9,
        14,
        19,
        40
      ],
      "name": "flamingo_Pelvis_bone_33",
      "rotation": [
        -9.635539477415023e-09,
        0.26302647590637207,
        0.9647886157035828,
        4.334603431743744e-08
      ],
      "translation": [
        1.0392369631517795e-06,
        -23.774972915649414,
        -98.76029968261719
      ]
    },
    {
      "children": [
        10
      ],
      "name": "flamingo_r_Thigh_bone_4",
      "rotation": [
        -3.239541115362954e-07,
        -0.44776394963264465,
        -0.8941518068313599,
        1.4056044506105536e-07
      ],
      "scale": [
        1.0,
        1.000000238418579,
        1.000000238418579
      ],
      "translation": [
        7.114002704620361,
        1.185320496559143,
        3.5610570907592773
      ]
    },
    {
      "children": [
        11
      ],
      "name": "flamingo_r_Knee_bone_3",
      "rotation": [
        0.5722829103469849,
        -4.177947232619772e-07,
        -4.797061592398677e-07,
        0.8200563192367554
      ],
      "scale": [
        1.0,
        1.0,
        0.9999999403953552
      ],
      "translation": [
        2.393225713603897e-06,
        14.970651626586914,
        -3.8725258491467685e-05
      ]
    },
    {
      "children": [
        12
      ],
      "name": "flamingo_r_Ankle_bone_2",
      "rotation": [
        -0.059077613055706024,
        2.3806101125956047e-06,
        -3.8906360799728645e-08,
        0.9982534646987915
      ],
      "translation": [
        7.343211109400727e-06,
        43.76582336425781,
        -7.004787676123669e-06
      ]
    },
    {
      "children": [
        13
      ],
      "name": "flamingo_r_Toe_bone_1",
      "rotation": [
        -0.6706317663192749,
        -2.5054421257664217e-06,
        -3.169246383549762e-06,
        0.7417904734611511
      ],
      "scale": [
        1.0,
        0.9999999403953552,
        0.9999999403953552
      ],
      "translation": [
        -1.1490069482533727e-05,
        44.769832611083984,
        -3.18802849506028e-05
      ]
    },
    {
      "name": "flamingo_r_Toe-nub_bone_0",
      "rotation": [
        -8.800998330116272e-08,
        -1.9469759138246445e-10,
        1.2434497875801753e-13,
        1.0
      ],
      "translation": [
        -1.0165072126255836e-05,
        9.261034965515137,
        -4.761038326250855e-06
      ]
    },
    {
      "children": [
        15
      ],
      "name": "flamingo_l_Thigh_bone_9",
      "rotation": [
        0.8941518068313599,
        1.701459098057967e-07,
        2.6863457947001734e-07,
        0.44776397943496704
      ],
      "scale": [
        1.0,
        0.9999998807907104,
        0.9999997019767761
      ],
      "translation": [
        -7.114382266998291,
        1.185325026512146,
        3.561054229736328
      ]
    },
    {
      "children": [
        16
      ],
      "name": "flamingo_l_Knee_bone_8",
      "rotation": [
        -0.5722829103469849,
        -5.886089979867393e-07,
        8.936249429325471e-08,
        0.8200563192367554
      ],
      "translation": [
        1.1155025276821107e-06,
        14.970672607421875,
        2.6980051188729703e-05
      ]
    },
    {
      "children": [
        17
      ],
      "name": "flamingo_l_Ankle_bone_7",
      "rotation": [
        0.059077583253383636,
        1.1027495929738507e-06,
        1.4085599353563794e-08,
        0.9982534050941467
      ],
      "scale": [
        1.0,
        0.9999999403953552,
        0.9999999403953552
      ],
      "translation": [
        5.344319106370676e-06,
        43.76581573486328,
        -9.334360584034584e-06
      ]
    },
    {
      "children": [
        18
      ],
      "name": "flamingo_l_Toe_bone_6",
      "rotation": [
        0.6706323623657227,
        -8.774615594120405e-07,
        7.668496664336999e-07,
        0.7417899370193481
      ],
      "translation": [
        9.852577022684272e-06,
        44.76987075805664,
        7.233398355310783e-05
      ]
    },
    {
      "name": "flamingo_l_Toe-nub_bone_5",
      "rotation": [
        -9.220094199235973e-08,
        3.6148861681795097e-13,
        1.2195799925507345e-13,
        1.0
      ],
      "scale": [
        1.0,
        0.9999999403953552,
        1.0
      ],
      "translation": [
        -8.572231422476762e-07,
        9.260995864868164,
        2.869157924578758e-07
      ]
    },
    {
      "children": [
        20
      ],
      "name": "flamingo_Spine1_bone_30",
      "rotation": [
        0.9965932965278625,
        9.262424605083197e-09,
        2.2992647785713416e-08,
        0.08247342705726624
      ],
      "scale": [
        1.0,
        1.0,
        1.0000005960464478
      ],
      "translation": [
        7.629391802765895e-06,
        -5.722045443690149e-06,
        3.814697265625e-06
      ]
    },
    {
      "children": [
        21
      ],
      "name": "flamingo_Spine2_bone_29",
      "rotation": [
        -0.3373596668243408,
        -8.479221946799953e-08,
        -2.6380000406334148e-09,
        0.9413758516311646
      ],
      "translation": [
        -9.53675112214114e-07,
        10.000505447387695,
        -4.768369876728684e-07
      ]
    },
    {
      "children": [
        22
      ],
      "name": "flamingo_Spine3_bone_28",
      "rotation": [
        -0.07809706032276154,
        -1.0568632546892331e-07,
        1.3097589679489374e-08,
        0.9969457983970642
      ],
      "scale": [
        1.0,
        0.9999999403953552,
        0.9999999403953552
      ],
      "translation": [
        -7.878497854107991e-11,
        27.59493637084961,
        -0.0014121532440185547
      ]
    },
    {
      "children": [
        23
      ],
      "name": "flamingo_Neck1_bone_27",
      "rotation": [
        0.17477372288703918,
        9.005874090917132e-08,
        -3.0609001555603754e-08,
        0.9846086502075195
      ],
      "scale": [
        1.0,
        0.9999999403953552,
        0.9999999403953552
      ],
      "translation": [
        4.956746124662459e-11,
        11.68332290649414,
        0.00020122528076171875
      ]
    },
    {
      "children": [
        24
      ],
      "name": "flamingo_Neck2_bone_26",
      "rotation": [
        0.3632437288761139,
        8.053346789438365e-08,
        3.7509352068809676e-08,
        0.9316942691802979
      ],
      "translation": [
        -2.3841710117267212e-07,
        5.435250282287598,
        2.193450927734375e-05
      ]
    },
    {
      "children": [
        25
      ],
      "name": "flamingo_Neck3_bone_25",
      "rotation": [
        0.20166248083114624,
        3.141351783142454e-07,
        1.2872493471149937e-07,
        0.9794550538063049
      ],
      "scale": [
        1.0,
        0.9999999403953552,
        1.0
      ],
      "translation": [
        -4.547473508864641e-12,
        6.452669143676758,
        -4.9591064453125e-05
      ]
    },
    {
      "children": [
        26
      ],
      "name": "flamingo_Neck4_bone_24",
      "rotation": [
        0.251748651266098,
        -8.74442207532411e-07,
        4.672893183510496e-10,
        0.9677927494049072
      ],
      "scale": [
        1.0,
        1.0000001192092896,
        1.0
      ],
      "translation": [
        -1.0118128557223827e-11,
        6.058025360107422,
        -4.9591064453125e-05
      ]
    },
    {
      "children": [
        27
      ],
      "name": "flamingo_Neck5_bone_23",
      "rotation": [
        0.16966049373149872,
        -6.132412408987875e-07,
        -1.6866957253114379e-07,
        0.9855026006698608
      ],
      "translation": [
        -1.4305038575912477e-06,
        6.402807712554932,
        -2.026557740464341e-05
      ]
    },
    {
      "children": [
        28
      ],
      "name": "flamingo_Neck6_bone_22",
      "rotation": [
        0.12250208109617233,
        -9.645385716794408e-07,
        -3.0765002634325356e-07,
        0.9924682378768921
      ],
      "translation": [
        -1.4304655451269355e-06,
        7.091803550720215,
        -7.629381343576824e-06
      ]
    },
    {
      "children": [
        29
      ],
      "name": "flamingo_Neck7_bone_21",
      "rotation": [
        -0.07308878749608994,
        6.453809078266204e-07,
        3.5248822882749664e-07,
        0.9973255395889282
      ],
      "scale": [
        1.0,
        0.9999999403953552,
        0.9999998807907104
      ],
      "translation": [
        -1.4304896467365324e-06,
        9.015153884887695,
        -1.5258739949786104e-05
      ]
    },
    {
      "children": [
        30
      ],
      "name": "flamingo_Neck8_bone_20",
      "rotation": [
        -0.12391029298305511,
        -2.715646907347491e-08,
        -3.327705400124614e-08,
        0.9922934770584106
      ],
      "scale": [
        1.0,
        0.9999999403953552,
        0.9999999403953552
      ],
      "translation": [
        -4.76837158203125e-07,
        6.233118057250977,
        -1.90730122540117e-06
      ]
    },
    {
      "children": [
        31
      ],
      "name": "flamingo_Neck9_bone_19",
      "rotation": [
        -0.1701260805130005,
        5.007543535384684e-08,
        -4.573633702875668e-07,
        0.9854223132133484
      ],
      "scale": [
        1.0,
        1.0,
        0.9999999403953552
      ],
      "translation": [
        -7.152084435801953e-07,
        5.452836990356445,
        3.814750016317703e-06
      ]
    },
    {
      "children": [
        32
      ],
      "name": "flamingo_Neck10_bone_18",
      "rotation": [
        -0.23221397399902344,
        5.553965820581652e-07,
        8.933410526879015e-07,
        0.9726648330688477
      ],
      "scale": [
        1.0,
        0.9999999403953552,
        1.0
      ],
      "translation": [
        -9.537288860883564e-07,
        4.494198322296143,
        2.419951488263905e-05
      ]
    },
    {
      "children": [
        33
      ],
      "name": "flamingo_Neck11_bone_17",
      "rotation": [
        -0.11531109362840652,
        3.378817581278781e-08,
        -1.4595466382161248e-06,
        0.9933294653892517
      ],
      "scale": [
        1.0,
        0.9999998807907104,
        0.9999998807907104
      ],
      "translation": [
        2.3842721930122934e-07,
        6.268320083618164,
        -1.5258784515026491e-05
      ]
    },
    {
      "children": [
        34
      ],
      "name": "flamingo_Neck12_bone_16",
      "rotation": [
        -0.10235393047332764,
        -7.295757313841023e-07,
        1.7073795106625766e-06,
        0.994748055934906
      ],
      "translation": [
        6.366462912410498e-11,
        3.1453723907470703,
        -1.9073488601861754e-06
      ]
    },
    {
      "children": [
        35,
        37
      ],
      "name": "flamingo_Head_bone_15",
      "rotation": [
        -0.4801023006439209,
        7.930437959657866e-07,
        -1.3200055946072098e-06,
        0.8772125244140625
      ],
      "scale": [
        1.0,
        0.9999999403953552,
        0.9999999403953552
      ],
      "translation": [
        1.0459189070388675e-11,
        3.739978790283203,
        -2.670288631634321e-05
      ]
    },
    {
      "children": [
        36
      ],
      "name": "flamingo_Nostril_bone_11",
      "rotation": [
        -0.2717333436012268,
        -1.1290518386886106e-07,
        -4.6103914996820095e-07,
        0.9623726010322571
      ],
      "scale": [
        1.0,
        1.0,
        1.0000001192092896
      ],
      "translation": [
        9.533323463983834e-07,
        12.05923843383789,
        0.00017929085879586637
      ]
    },
    {
      "name": "flamingo_Nostril-nub_bone_10",
      "rotation": [
        -7.525088676629821e-07,
        1.1920526077346949e-07,
        1.3666291405825537e-12,
        1.0
      ],
      "scale": [
        1.0,
        0.9999999403953552,
        0.9999999403953552
      ],
      "translation": [
        1.549714943394065e-05,
        4.947650909423828,
        4.959128636983223e-05
      ]
    },
    {
      "children": [
        38
      ],
      "name": "flamingo_Mandible_bone_14",
      "rotation": [
        -0.06436381489038467,
        -1.5506312820434687e-06,
        1.3910754432799877e-06,
        0.9979265332221985
      ],
      "translation": [
        -2.721542477956973e-05,
        3.2731552124023438,
        -1.826436996459961
      ]
    },
    {
      "children": [
        39
      ],
      "name": "flamingo_Beak_bone_13",
      "rotation": [
        -0.14361949265003204,
        1.4345775412039075e-07,
        2.967111711882353e-08,
        0.9896330833435059
      ],
      "translation": [
        1.6370904631912708e-11,
        7.093753814697266,
        7.438660395564511e-05
      ]
    },
    {
      "name": "flamingo_Beak-nub_bone_12",
      "rotation": [
        3.129243850708008e-07,
        2.7020513471143204e-07,
        -4.263255736934243e-14,
        1.0
      ],
      "scale": [
        1.0,
        1.0000001192092896,
        1.0
      ],
      "translation": [
        7.152611942728981e-07,
        5.262714385986328,
        8.392334711970761e-05
      ]
    },
    {
      "children": [
        41
      ],
      "name": "flamingo_Tail_bone_32",
      "rotation": [
        -0.18690478801727295,
        9.896452013435919e-08,
        -4.163037914395318e-08,
        0.9823780655860901
      ],
      "translation": [
        7.152568741730647e-07,
        7.640836715698242,
        -1.71661376953125e-05
      ]
    },
    {
      "name": "flamingo_Tail-nub_bone_31",
      "rotation": [
        -0.0032790969125926495,
        2.0815667411966388e-08,
        1.6943198843932805e-08,
        0.9999946355819702
      ],
      "scale": [
        1.0,
        0.9999998807907104,
        0.9999999403953552
      ],
      "translation": [
        -4.768378971675702e-07,
        7.654574394226074,
        9.059906005859375e-06
      ]
    }
  ],
  "samplers": [
    {
      "magFilter": 9729,
      "minFilter": 9987,
      "wrapS": 10497,
      "wrapT": 10497
    }
  ],
  "scene": 0,
  "scenes": [
    {
      "name": "Sketchfab_Scene",
      "nodes": [
        0
      ]
    }
  ],
  "skins": [
    {
      "inverseBindMatrices": 14,
      "joints": [
        5,
        8,
        9,
        10,
        11,
        12,
        13,
        14,
        15,
        16,
        17,
        18,
        19,
        20,
        21,
        22,
        23,
        24,
        25,
        26,
        27,
        28,
        29,
        30,
        31,
        32,
        33,
        34,
        35,
        36,
        37,
        38,
        39,
        40,
        41
      ],
      "skeleton": 5
    }
  ],
  "textures": [
    {
      "sampler": 0,
      "source": 0
    },
    {
      "sampler": 0,
      "source": 1
    },
    {
      "sampler": 0,
      "source": 2
    }
  ]
}
