{
  "accessors": [
    {
      "bufferView": 2,
      "componentType": 5126,
      "count": 403,
      "max": [
        -0.03899386152625084,
        0.4423886239528656,
        0.04500001668930054
      ],
      "min": [
        -0.10096776485443115,
        -0.075417160987854,
        -0.04499997943639755
      ],
      "type": "VEC3"
    },
    {
      "bufferView": 2,
      "byteOffset": 4836,
      "componentType": 5126,
      "count": 403,
      "max": [
        1.0,
        1.0,
        1.0
      ],
      "min": [
        -1.0,
        -0.9885708689689636,
        -1.0
      ],
      "type": "VEC3"
    },
    {
      "bufferView": 1,
      "componentType": 5126,
      "count": 403,
      "max": [
        0.48899999260902405,
        1.0
      ],
      "min": [
        0.13899999856948853,
        0.0
      ],
      "type": "VEC2"
    },
    {
      "bufferView": 0,
      "componentType": 5125,
      "count": 684,
      "type": "SCALAR"
    },
    {
      "bufferView": 2,
      "byteOffset": 9672,
      "componentType": 5126,
      "count": 18,
      "max": [
        -0.03899386152625084,
        0.4423886239528656,
        0.03051619976758957
      ],
      "min": [
        -0.10096776485443115,
        0.4423886239528656,
        -0.030516162514686584
      ],
      "type": "VEC3"
    },
    {
      "bufferView": 2,
      "byteOffset": 9888,
      "componentType": 5126,
      "count": 18,
      "max": [
        0.0,
        1.0,
        -0.0
      ],
      "min": [
        0.0,
        1.0,
        -0.0
      ],
      "type": "VEC3"
    },
    {
      "bufferView": 1,
      "byteOffset": 3224,
      "componentType": 5126,
      "count": 18,
      "max": [
        1.0,
        0.0
      ],
      "min": [
        0.0555555485188961,
        0.0
      ],
      "type": "VEC2"
    },
    {
      "bufferView": 0,
      "byteOffset": 2736,
      "componentType": 5125,
      "count": 48,
      "type": "SCALAR"
    },
    {
      "bufferView": 2,
      "byteOffset": 10104,
      "componentType": 5126,
      "count": 18,
      "max": [
        -0.05043763294816017,
        0.4765891432762146,
        0.024620214477181435
      ],
      "min": [
        -0.09951899200677872,
        0.46704867482185364,
        -0.02462017349898815
      ],
      "type": "VEC3"
    },
    {
      "bufferView": 2,
      "byteOffset": 10320,
      "componentType": 5126,
      "count": 18,
      "max": [
        -0.19080543518066406,
        0.981627881526947,
        0.0
      ],
      "min": [
        -0.19082900881767273,
        0.9816233515739441,
        0.0
      ],
      "type": "VEC3"
    },
    {
      "bufferView": 1,
      "byteOffset": 3368,
      "componentType": 5126,
      "count": 18,
      "max": [
        0.0,
        0.0
      ],
      "min": [
        0.0,
        0.0
      ],
      "type": "VEC2"
    },
    {
      "bufferView": 0,
      "byteOffset": 2928,
      "componentType": 5125,
      "count": 48,
      "type": "SCALAR"
    },
    {
      "bufferView": 2,
      "byteOffset": 10536,
      "componentType": 5126,
      "count": 144,
      "max": [
        -0.05043763294816017,
        0.4765891432762146,
        0.024620214477181435
      ],
      "min": [
        -0.09951899200677872,
        0.43553557991981506,
        -0.02462017349898815
      ],
      "type": "VEC3"
    },
    {
      "bufferView": 2,
      "byteOffset": 12264,
      "componentType": 5126,
      "count": 144,
      "max": [
        0.9847654104232788,
        -0.04058867320418358,
        0.973720908164978
      ],
      "min": [
        -0.8978540301322937,
        -0.7008602023124695,
        -0.9737208485603333
      ],
      "type": "VEC3"
    },
    {
      "bufferView": 1,
      "byteOffset": 3512,
      "componentType": 5126,
      "count": 144,
      "max": [
        0.0,
        0.0
      ],
      "min": [
        0.0,
        0.0
      ],
      "type": "VEC2"
    },
    {
      "bufferView": 0,
      "byteOffset": 3120,
      "componentType": 5125,
      "count": 216,
      "type": "SCALAR"
    },
    {
      "bufferView": 2,
      "byteOffset": 13992,
      "componentType": 5126,
      "count": 402,
      "max": [
        0.10096776485443115,
        0.4423886239528656,
        0.04500001668930054
      ],
      "min": [
        0.03899386152625084,
        -0.075417160987854,
        -0.04499997943639755
      ],
      "type": "VEC3"
    },
    {
      "bufferView": 2,
      "byteOffset": 18816,
      "componentType": 5126,
      "count": 402,
      "max": [
        1.0,
        1.0,
        1.0
      ],
      "min": [
        -1.0,
        -0.9885708689689636,
        -1.0
      ],
      "type": "VEC3"
    },
    {
      "bufferView": 1,
      "byteOffset": 4664,
      "componentType": 5126,
      "count": 402,
      "max": [
        0.48899999260902405,
        1.0
      ],
      "min": [
        0.13899999856948853,
        0.0
      ],
      "type": "VEC2"
    },
    {
      "bufferView": 0,
      "byteOffset": 3984,
      "componentType": 5125,
      "count": 684,
      "type": "SCALAR"
    },
    {
      "bufferView": 2,
      "byteOffset": 23640,
      "componentType": 5126,
      "count": 18,
      "max": [
        0.10096776485443115,
        0.4423886239528656,
        0.03051619976758957
      ],
      "min": [
        0.03899386152625084,
        0.4423886239528656,
        -0.030516162514686584
      ],
      "type": "VEC3"
    },
    {
      "bufferView": 2,
      "byteOffset": 23856,
      "componentType": 5126,
      "count": 18,
      "max": [
        0.0,
        1.0,
        0.0
      ],
      "min": [
        0.0,
        1.0,
        0.0
      ],
      "type": "VEC3"
    },
    {
      "bufferView": 1,
      "byteOffset": 7880,
      "componentType": 5126,
      "count": 18,
      "max": [
        1.0,
        0.0
      ],
      "min": [
        0.0555555485188961,
        0.0
      ],
      "type": "VEC2"
    },
    {
      "bufferView": 0,
      "byteOffset": 6720,
      "componentType": 5125,
      "count": 48,
      "type": "SCALAR"
    },
    {
      "bufferView": 2,
      "byteOffset": 24072,
      "componentType": 5126,
      "count": 18,
      "max": [
        0.09951899200677872,
        0.4765891432762146,
        0.024620214477181435
      ],
      "min": [
        0.05043763294816017,
        0.46704867482185364,
        -0.02462017349898815
      ],
      "type": "VEC3"
    },
    {
      "bufferView": 2,
      "byteOffset": 24288,
      "componentType": 5126,
      "count": 18,
      "max": [
        0.19082900881767273,
        0.981627881526947,
        -0.0
      ],
      "min": [
        0.19080543518066406,
        0.9816233515739441,
        -0.0
      ],
      "type": "VEC3"
    },
    {
      "bufferView": 1,
      "byteOffset": 8024,
      "componentType": 5126,
      "count": 18,
      "max": [
        0.0,
        0.0
      ],
      "min": [
        0.0,
        0.0
      ],
      "type": "VEC2"
    },
    {
      "bufferView": 0,
      "byteOffset": 6912,
      "componentType": 5125,
      "count": 48,
      "type": "SCALAR"
    },
    {
      "bufferView": 2,
      "byteOffset": 24504,
      "componentType": 5126,
      "count": 144,
      "max": [
        0.09951899200677872,
        0.4765891432762146,
        0.024620214477181435
      ],
      "min": [
        0.05043763294816017,
        0.43553557991981506,
        -0.02462017349898815
      ],
      "type": "VEC3"
    },
    {
      "bufferView": 2,
      "byteOffset": 26232,
      "componentType": 5126,
      "count": 144,
      "max": [
        0.8978540301322937,
        -0.04058867320418358,
        0.973720908164978
      ],
      "min": [
        -0.9847654104232788,
        -0.7008602023124695,
        -0.9737208485603333
      ],
      "type": "VEC3"
    },
    {
      "bufferView": 1,
      "byteOffset": 8168,
      "componentType": 5126,
      "count": 144,
      "max": [
        0.0,
        0.0
      ],
      "min": [
        0.0,
        0.0
      ],
      "type": "VEC2"
    },
    {
      "bufferView": 0,
      "byteOffset": 7104,
      "componentType": 5125,
      "count": 216,
      "type": "SCALAR"
    },
    {
      "bufferView": 2,
      "byteOffset": 27960,
      "componentType": 5126,
      "count": 342,
      "max": [
        0.051327817142009735,
        -0.11289224028587341,
        0.050548020750284195
      ],
      "min": [
        -0.051327817142009735,
        -0.4765891432762146,
        -0.050548043102025986
      ],
      "type": "VEC3"
    },
    {
      "bufferView": 2,
      "byteOffset": 32064,
      "componentType": 5126,
      "count": 342,
      "max": [
        0.9848077893257141,
        0.6276004910469055,
        1.0
      ],
      "min": [
        -0.9848077893257141,
        -0.8226306438446045,
        -1.0
      ],
      "type": "VEC3"
    },
    {
      "bufferView": 1,
      "byteOffset": 9320,
      "componentType": 5126,
      "count": 342,
      "max": [
        0.9932979941368103,
        1.0
      ],
      "min": [
        0.5228480100631714,
        0.5790793895721436
      ],
      "type": "VEC2"
    },
    {
      "bufferView": 0,
      "byteOffset": 7968,
      "componentType": 5125,
      "count": 486,
      "type": "SCALAR"
    },
    {
      "bufferView": 2,
      "byteOffset": 36168,
      "componentType": 5126,
      "count": 18,
      "max": [
        0.03500000014901161,
        -0.11289224028587341,
        0.03446826711297035
      ],
      "min": [
        -0.03500000014901161,
        -0.11289224028587341,
        -0.03446827456355095
      ],
      "type": "VEC3"
    },
    {
      "bufferView": 2,
      "byteOffset": 36384,
      "componentType": 5126,
      "count": 18,
      "max": [
        0.0,
        1.0,
        0.0
      ],
      "min": [
        0.0,
        1.0,
        0.0
      ],
      "type": "VEC3"
    },
    {
      "bufferView": 1,
      "byteOffset": 12056,
      "componentType": 5126,
      "count": 18,
      "max": [
        0.9932979941368103,
        0.5790793895721436
      ],
      "min": [
        0.5751202702522278,
        0.5790793895721436
      ],
      "type": "VEC2"
    },
    {
      "bufferView": 0,
      "byteOffset": 9912,
      "componentType": 5125,
      "count": 48,
      "type": "SCALAR"
    },
    {
      "bufferView": 2,
      "byteOffset": 36600,
      "componentType": 5126,
      "count": 295,
      "max": [
        0.047999996691942215,
        0.3974619507789612,
        0.03446828946471214
      ],
      "min": [
        -0.03500000014901161,
        -0.11289224028587341,
        -0.03499998897314072
      ],
      "type": "VEC3"
    },
    {
      "bufferView": 2,
      "byteOffset": 40140,
      "componentType": 5126,
      "count": 295,
      "max": [
        1.0,
        1.0,
        1.0
      ],
      "min": [
        -0.9848077893257141,
        -0.4472144842147827,
        -1.0
      ],
      "type": "VEC3"
    },
    {
      "bufferView": 1,
      "byteOffset": 12200,
      "componentType": 5126,
      "count": 295,
      "max": [
        0.9932979941368103,
        0.7746000289916992
      ],
      "min": [
        0.05827495828270912,
        0.0
      ],
      "type": "VEC2"
    },
    {
      "bufferView": 0,
      "byteOffset": 10104,
      "componentType": 5125,
      "count": 456,
      "type": "SCALAR"
    },
    {
      "bufferView": 2,
      "byteOffset": 43680,
      "componentType": 5126,
      "count": 108,
      "max": [
        0.03500000014901161,
        0.4324619174003601,
        0.03446828946471214
      ],
      "min": [
        -0.03500000014901161,
        -0.11289224028587341,
        -0.03446827456355095
      ],
      "type": "VEC3"
    },
    {
      "bufferView": 2,
      "byteOffset": 44976,
      "componentType": 5126,
      "count": 108,
      "max": [
        0.8999287486076355,
        1.0,
        0.9138115644454956
      ],
      "min": [
        -0.8999287486076355,
        -1.0,
        -0.9138115644454956
      ],
      "type": "VEC3"
    },
    {
      "bufferView": 1,
      "byteOffset": 14560,
      "componentType": 5126,
      "count": 108,
      "max": [
        1.0,
        0.5790793895721436
      ],
      "min": [
        0.0,
        0.0
      ],
      "type": "VEC2"
    },
    {
      "bufferView": 0,
      "byteOffset": 11928,
      "componentType": 5125,
      "count": 204,
      "type": "SCALAR"
    },
    {
      "bufferView": 2,
      "byteOffset": 46272,
      "componentType": 5126,
      "count": 18,
      "max": [
        0.012350001372396946,
        0.4724619388580322,
        0.01280252169817686
      ],
      "min": [
        -0.012349999509751797,
        0.4724619388580322,
        -0.012802480719983578
      ],
      "type": "VEC3"
    },
    {
      "bufferView": 2,
      "byteOffset": 46488,
      "componentType": 5126,
      "count": 18,
      "max": [
        0.0,
        1.0,
        0.0
      ],
      "min": [
        0.0,
        1.0,
        0.0
      ],
      "type": "VEC3"
    },
    {
      "bufferView": 1,
      "byteOffset": 15424,
      "componentType": 5126,
      "count": 18,
      "max": [
        0.0,
        0.0
      ],
      "min": [
        0.0,
        0.0
      ],
      "type": "VEC2"
    },
    {
      "bufferView": 0,
      "byteOffset": 12744,
      "componentType": 5125,
      "count": 96,
      "type": "SCALAR"
    },
    {
      "bufferView": 2,
      "byteOffset": 46704,
      "componentType": 5126,
      "count": 144,
      "max": [
        0.012350001372396946,
        0.4724619388580322,
        0.01280252169817686
      ],
      "min": [
        -0.012349999509751797,
        0.43060192465782166,
        -0.012802480719983578
      ],
      "type": "VEC3"
    },
    {
      "bufferView": 2,
      "byteOffset": 48432,
      "componentType": 5126,
      "count": 144,
      "max": [
        0.98167484998703,
        -0.09630011022090912,
        0.9948691725730896
      ],
      "min": [
        -0.98167484998703,
        -0.2783958911895752,
        -0.9948691129684448
      ],
      "type": "VEC3"
    },
    {
      "bufferView": 1,
      "byteOffset": 15568,
      "componentType": 5126,
      "count": 144,
      "max": [
        0.0,
        0.0
      ],
      "min": [
        0.0,
        0.0
      ],
      "type": "VEC2"
    },
    {
      "bufferView": 0,
      "byteOffset": 13128,
      "componentType": 5125,
      "count": 432,
      "type": "SCALAR"
    }
  ],
  "asset": {
    "extras": {
      "author": "Space Explorers Academy (https://sketchfab.com/SpaceExplorersAcademy)",
      "license": "CC-BY-NC-SA-4.0 (http://creativecommons.org/licenses/by-nc-sa/4.0/)",
      "source": "https://sketchfab.com/3d-models/nasa-titan-4-207f40b576d44488a67a0193eb20849c",
      "title": "NASA Titan 4"
    },
    "generator": "Sketchfab-16.12.0",
    "version": "2.0"
  },
  "bufferViews": [
    {
      "buffer": 0,
      "byteLength": 14856,
      "name": "floatBufferViews",
      "target": 34963
    },
    {
      "buffer": 0,
      "byteLength": 16720,
      "byteOffset": 14856,
      "byteStride": 8,
      "name": "floatBufferViews",
      "target": 34962
    },
    {
      "buffer": 0,
      "byteLength": 50160,
      "byteOffset": 31576,
      "byteStride": 12,
      "name": "floatBufferViews",
      "target": 34962
    }
  ],
  "buffers": [
    {
      "byteLength": 81736,
      "uri": "scene.bin"
    }
  ],
  "images": [
    {
      "uri": "textures/Default_baseColor.png"
    }
  ],
  "materials": [
    {
      "doubleSided": true,
      "name": "Default",
      "pbrMetallicRoughness": {
        "baseColorTexture": {
          "index": 0
        },
        "metallicFactor": 0.0,
        "roughnessFactor": 0.6
      }
    },
    {
      "doubleSided": true,
      "name": "inner",
      "pbrMetallicRoughness": {
        "baseColorFactor": [
          0.752941,
          0.752941,
          0.752941,
          1.0
        ],
        "metallicFactor": 0.0,
        "roughnessFactor": 0.6
      }
    },
    {
      "doubleSided": true,
      "name": "exhaust",
      "pbrMetallicRoughness": {
        "baseColorFactor": [
          0.0,
          0.0,
          0.0,
          1.0
        ],
        "metallicFactor": 0.0,
        "roughnessFactor": 0.6
      }
    },
    {
      "doubleSided": true,
      "name": "engine",
      "pbrMetallicRoughness": {
        "baseColorFactor": [
          0.501961,
          0.501961,
          0.501961,
          1.0
        ],
        "metallicFactor": 0.0,
        "roughnessFactor": 0.6
      }
    }
  ],
  "meshes": [
    {
      "name": "Object_0",
      "primitives": [
        {
          "attributes": {
            "NORMAL": 1,
            "POSITION": 0,
            "TEXCOORD_0": 2
          },
          "indices": 3,
          "material": 0,
          "mode": 4
        }
      ]
    },
    {
      "name": "Object_1",
      "primitives": [
        {
          "attributes": {
            "NORMAL": 5,
            "POSITION": 4,
            "TEXCOORD_0": 6
          },
          "indices": 7,
          "material": 1,
          "mode": 4
        }
      ]
    },
    {
      "name": "Object_2",
      "primitives": [
        {
          "attributes": {
            "NORMAL": 9,
            "POSITION": 8,
            "TEXCOORD_0": 10
          },
          "indices": 11,
          "material": 2,
          "mode": 4
        }
      ]
    },
    {
      "name": "Object_3",
      "primitives": [
        {
          "attributes": {
            "NORMAL": 13,
            "POSITION": 12,
            "TEXCOORD_0": 14
          },
          "indices": 15,
          "material": 3,
          "mode": 4
        }
      ]
    },
    {
      "name": "Object_4",
      "primitives": [
        {
          "attributes": {
            "NORMAL": 17,
            "POSITION": 16,
            "TEXCOORD_0": 18
          },
          "indices": 19,
          "material": 0,
          "mode": 4
        }
      ]
    },
    {
      "name": "Object_5",
      "primitives": [
        {
          "attributes": {
            "NORMAL": 21,
            "POSITION": 20,
            "TEXCOORD_0": 22
          },
          "indices": 23,
          "material": 1,
          "mode": 4
        }
      ]
    },
    {
      "name": "Object_6",
      "primitives": [
        {
          "attributes": {
            "NORMAL": 25,
            "POSITION": 24,
            "TEXCOORD_0": 26
          },
          "indices": 27,
          "material": 2,
          "mode": 4
        }
      ]
    },
    {
      "name": "Object_7",
      "primitives": [
        {
          "attributes": {
            "NORMAL": 29,
            "POSITION": 28,
            "TEXCOORD_0": 30
          },
          "indices": 31,
          "material": 3,
          "mode": 4
        }
      ]
    },
    {
      "name": "Object_8",
      "primitives": [
        {
          "attributes": {
            "NORMAL": 33,
            "POSITION": 32,
            "TEXCOORD_0": 34
          },
          "indices": 35,
          "material": 0,
          "mode": 4
        }
      ]
    },
    {
      "name": "Object_9",
      "primitives": [
        {
          "attributes": {
            "NORMAL": 37,
            "POSITION": 36,
            "TEXCOORD_0": 38
          },
          "indices": 39,
          "material": 1,
          "mode": 4
        }
      ]
    },
    {
      "name": "Object_10",
      "primitives": [
        {
          "attributes": {
            "NORMAL": 41,
            "POSITION": 40,
            "TEXCOORD_0": 42
          },
          "indices": 43,
          "material": 0,
          "mode": 4
        }
      ]
    },
    {
      "name": "Object_11",
      "primitives": [
        {
          "attributes": {
            "NORMAL": 45,
            "POSITION": 44,
            "TEXCOORD_0": 46
          },
          "indices": 47,
          "material": 1,
          "mode": 4
        }
      ]
    },
    {
      "name": "Object_12",
      "primitives": [
        {
          "attributes": {
            "NORMAL": 49,
            "POSITION": 48,
            "TEXCOORD_0": 50
          },
          "indices": 51,
          "material": 2,
          "mode": 4
        }
      ]
    },
    {
      "name": "Object_13",
      "primitives": [
        {
          "attributes": {
            "NORMAL": 53,
            "POSITION": 52,
            "TEXCOORD_0": 54
          },
          "indices": 55,
          "material": 3,
          "mode": 4
        }
      ]
    }
  ],
  "nodes": [
    {
      "children": [
        1
      ],
      "matrix": [
        1.74061918258667,
        0.0,
        0.0,
        0.0,
        0.0,
        -1.74061918258667,
        -7.729901974447761e-16,
        0.0,
        0.0,
        7.729901974447761e-16,
        -1.74061918258667,
        0.0,
        0.0,
        0.0,
        0.0,
        1.0
      ],
      "name": "Sketchfab_model"
    },
    {
      "children": [
        2,
        8,
        14,
        18
      ],
      "name": "titan4a.3ds"
    },
    {
      "children": [
        3
      ],
      "matrix": [
        1.0,
        0.0,
        0.0,
        0.0,
        0.0,
        0.0,
        1.0,
        0.0,
        0.0,
        -1.0,
        0.0,
        0.0,
        0.0,
        -0.027538061141967773,
        -1.203726895937507e-09,
        1.0
      ],
      "name": "SRB_R"
    },
    {
      "children": [
        4,
        5,
        6,
        7
      ],
      "matrix": [
        1.0,
        0.0,
        0.0,
        0.0,
        0.0,
        -4.371138828673784e-08,
        -0.999999999999998,
        0.0,
        0.0,
        0.999999999999998,
        -4.371138828673784e-08,
        0.0,
        -0.0,
        1.2697023672546809e-17,
        -0.02753806114196777,
        1.0
      ],
      "name": "3DSMeshMatrix"
    },
    {
      "mesh": 0,
      "name": "Object_4"
    },
    {
      "mesh": 1,
      "name": "Object_5"
    },
    {
      "mesh": 2,
      "name": "Object_6"
    },
    {
      "mesh": 3,
      "name": "Object_7"
    },
    {
      "children": [
        9
      ],
      "matrix": [
        1.0,
        0.0,
        0.0,
        0.0,
        0.0,
        0.0,
        1.0,
        0.0,
        0.0,
        -1.0,
        0.0,
        0.0,
        0.0,
        -0.027538061141967773,
        -1.203726895937507e-09,
        1.0
      ],
      "name": "SRB_L"
    },
    {
      "children": [
        10,
        11,
        12,
        13
      ],
      "matrix": [
        1.0,
        0.0,
        0.0,
        0.0,
        0.0,
        -4.371138828673784e-08,
        -0.999999999999998,
        0.0,
        0.0,
        0.999999999999998,
        -4.371138828673784e-08,
        0.0,
        -0.0,
        1.2697023672546809e-17,
        -0.02753806114196777,
        1.0
      ],
      "name": "3DSMeshMatrix"
    },
    {
      "mesh": 4,
      "name": "Object_10"
    },
    {
      "mesh": 5,
      "name": "Object_11"
    },
    {
      "mesh": 6,
      "name": "Object_12"
    },
    {
      "mesh": 7,
      "name": "Object_13"
    },
    {
      "children": [
        15
      ],
      "matrix": [
        1.0,
        0.0,
        0.0,
        0.0,
        0.0,
        0.0,
        1.0,
        0.0,
        0.0,
        -1.0,
        0.0,
        0.0,
        0.0,
        -0.027538061141967773,
        -1.203726895937507e-09,
        1.0
      ],
      "name": "fairing"
    },
    {
      "children": [
        16,
        17
      ],
      "matrix": [
        1.0,
        0.0,
        0.0,
        0.0,
        0.0,
        -4.371138828673784e-08,
        -0.999999999999998,
        0.0,
        0.0,
        0.999999999999998,
        -4.371138828673784e-08,
        0.0,
        -0.0,
        1.2697023672546809e-17,
        -0.02753806114196777,
        1.0
      ],
      "name": "3DSMeshMatrix"
    },
    {
      "mesh": 8,
      "name": "Object_16"
    },
    {
      "mesh": 9,
      "name": "Object_17"
    },
    {
      "children": [
        19
      ],
      "matrix": [
        1.0,
        0.0,
        0.0,
        0.0,
        0.0,
        0.0,
        1.0,
        0.0,
        0.0,
        -1.0,
        0.0,
        0.0,
        0.0,
        -0.027538061141967773,
        -1.203726895937507e-09,
        1.0
      ],
      "name": "main"
    },
    {
      "children": [
        20,
        21,
        22,
        23
      ],
      "matrix": [
        1.0,
        0.0,
        0.0,
        0.0,
        0.0,
        -4.371138828673784e-08,
        -0.999999999999998,
        0.0,
        0.0,
        0.999999999999998,
        -4.371138828673784e-08,
        0.0,
        -0.0,
        1.2697023672546809e-17,
        -0.02753806114196777,
        1.0
      ],
      "name": "3DSMeshMatrix"
    },
    {
      "mesh": 10,
      "name": "Object_20"
    },
    {
      "mesh": 11,
      "name": "Object_21"
    },
    {
      "mesh": 12,
      "name": "Object_22"
    },
    {
      "mesh": 13,
      "name": "Object_23"
    }
  ],
  "samplers": [
    {
      "magFilter": 9729,
      "minFilter": 9987,
      "wrapS": 10497,
      "wrapT": 10497
    }
  ],
  "scene": 0,
  "scenes": [
    {
      "name": "Sketchfab_Scene",
      "nodes": [
        0
      ]
    }
  ],
  "textures": [
    {
      "sampler": 0,
      "source": 0
    }
  ]
}
